<svg version="1.1" id="Layer_1" xmlns="http://www.w3.org/2000/svg" xmlns:xlink="http://www.w3.org/1999/xlink" x="0px" y="0px"
	 width="100%" viewBox="0 0 100 100" enable-background="new 0 0 100 100" xml:space="preserve">
<path fill="#000000" opacity="1.000000" stroke="none" 
	d="
M62.000000,101.000000 
	C41.333336,101.000000 21.166674,101.000000 1.000008,101.000000 
	C1.000005,67.666679 1.000005,34.333351 1.000003,1.000021 
	C34.333317,1.000014 67.666634,1.000014 100.999969,1.000007 
	C100.999977,34.333313 100.999977,67.666626 100.999985,100.999969 
	C88.166664,101.000000 75.333336,101.000000 62.000000,101.000000 
M65.115456,56.945805 
	C66.048294,54.885124 67.885849,52.680233 67.588638,50.815617 
	C67.397766,49.618134 64.148056,48.505123 62.119839,48.096115 
	C58.911583,47.449127 55.568626,47.106171 52.299107,47.201057 
	C45.017986,47.412357 37.526482,45.242630 30.595758,49.707542 
	C25.281761,53.130932 19.509268,55.835514 14.058764,59.059410 
	C12.796561,59.805984 11.195882,61.333950 11.148133,62.556904 
	C10.871513,69.641800 11.012985,76.743011 11.012985,84.570145 
	C16.497120,82.544731 21.347519,80.872955 26.104984,78.968971 
	C33.703709,75.927895 41.252014,72.663925 49.731964,74.056320 
	C67.246307,76.932144 81.123291,70.586945 92.079826,57.206558 
	C93.119316,55.937119 93.271378,53.188072 92.661705,51.567516 
	C92.202202,50.346123 89.764313,49.022041 88.386772,49.192886 
	C86.355927,49.444756 83.926743,50.519875 82.643410,52.058556 
	C77.359329,58.393997 70.598320,61.506859 62.583286,61.711563 
	C60.047237,61.776333 57.472965,60.344292 54.916187,59.597252 
	C55.035770,59.247536 55.155354,58.897823 55.274937,58.548107 
	C58.276539,58.035049 61.278137,57.521988 65.115456,56.945805 
M66.111748,46.029472 
	C67.346077,46.841946 68.580406,47.654415 70.316338,48.797054 
	C71.999283,44.358784 73.663506,39.969902 75.467285,35.212971 
	C68.475235,35.212971 62.382236,35.212971 56.256390,35.212971 
	C57.169235,40.756775 58.216629,45.941158 66.111748,46.029472 
M59.868156,31.997900 
	C64.807510,31.997900 69.746872,31.997900 75.337074,31.997900 
	C73.341171,27.800760 71.800728,24.084087 69.843880,20.601383 
	C68.349808,17.942293 62.568893,18.207123 61.060169,20.940781 
	C59.199459,24.312201 57.613312,27.835154 55.669540,31.777269 
	C57.124023,31.874474 58.044872,31.936014 59.868156,31.997900 
M49.697708,20.842899 
	C46.316910,24.214108 42.936111,27.585314 38.940350,31.569742 
	C53.426956,32.885384 54.896412,31.896263 59.014992,18.480497 
	C55.810890,19.134245 53.017338,19.704227 49.697708,20.842899 
M81.302414,20.848839 
	C78.486450,19.987776 75.670486,19.126713 72.251579,18.081280 
	C76.757195,32.041653 77.515984,32.583267 91.660721,31.705799 
	C88.009712,27.838211 84.943436,24.590048 81.302414,20.848839 
M76.008217,50.531609 
	C81.121819,45.757774 86.235420,40.983940 91.349022,36.210106 
	C91.012512,35.809292 90.676003,35.408478 90.339493,35.007664 
	C87.217392,35.007664 84.087708,34.884171 80.977333,35.075108 
	C79.898567,35.141331 78.246346,35.726746 77.914467,36.518616 
	C75.535553,42.194744 73.429573,47.985260 71.236916,53.739445 
	C71.491165,53.908344 71.745422,54.077244 71.999672,54.246143 
	C73.167099,53.173481 74.334534,52.100819 76.008217,50.531609 
M47.062477,41.583313 
	C49.389828,44.489834 52.101395,46.140541 55.917400,44.422680 
	C53.775684,34.795486 51.645878,33.515881 40.584381,35.862640 
	C42.842960,37.820335 44.702160,39.431854 47.062477,41.583313 
z"/>
<path fill="#F49442" opacity="1.000000" stroke="none" 
	d="
M64.697601,56.977367 
	C61.278137,57.521988 58.276539,58.035049 55.274937,58.548107 
	C55.155354,58.897823 55.035770,59.247536 54.916187,59.597252 
	C57.472965,60.344292 60.047237,61.776333 62.583286,61.711563 
	C70.598320,61.506859 77.359329,58.393997 82.643410,52.058556 
	C83.926743,50.519875 86.355927,49.444756 88.386772,49.192886 
	C89.764313,49.022041 92.202202,50.346123 92.661705,51.567516 
	C93.271378,53.188072 93.119316,55.937119 92.079826,57.206558 
	C81.123291,70.586945 67.246307,76.932144 49.731964,74.056320 
	C41.252014,72.663925 33.703709,75.927895 26.104984,78.968971 
	C21.347519,80.872955 16.497120,82.544731 11.012985,84.570145 
	C11.012985,76.743011 10.871513,69.641800 11.148133,62.556904 
	C11.195882,61.333950 12.796561,59.805984 14.058764,59.059410 
	C19.509268,55.835514 25.281761,53.130932 30.595758,49.707542 
	C37.526482,45.242630 45.017986,47.412357 52.299107,47.201057 
	C55.568626,47.106171 58.911583,47.449127 62.119839,48.096115 
	C64.148056,48.505123 67.397766,49.618134 67.588638,50.815617 
	C67.885849,52.680233 66.048294,54.885124 64.697601,56.977367 
z"/>
<path fill="#F49442" opacity="1.000000" stroke="none" 
	d="
M65.730690,45.927303 
	C58.216629,45.941158 57.169235,40.756775 56.256390,35.212971 
	C62.382236,35.212971 68.475235,35.212971 75.467285,35.212971 
	C73.663506,39.969902 71.999283,44.358784 70.316338,48.797054 
	C68.580406,47.654415 67.346077,46.841946 65.730690,45.927303 
z"/>
<path fill="#F49443" opacity="1.000000" stroke="none" 
	d="
M59.416939,31.997726 
	C58.044872,31.936014 57.124023,31.874474 55.669540,31.777269 
	C57.613312,27.835154 59.199459,24.312201 61.060169,20.940781 
	C62.568893,18.207123 68.349808,17.942293 69.843880,20.601383 
	C71.800728,24.084087 73.341171,27.800760 75.337074,31.997900 
	C69.746872,31.997900 64.807510,31.997900 59.416939,31.997726 
z"/>
<path fill="#F49443" opacity="1.000000" stroke="none" 
	d="
M49.960747,20.558556 
	C53.017338,19.704227 55.810890,19.134245 59.014992,18.480497 
	C54.896412,31.896263 53.426956,32.885384 38.940350,31.569742 
	C42.936111,27.585314 46.316910,24.214108 49.960747,20.558556 
z"/>
<path fill="#F49443" opacity="1.000000" stroke="none" 
	d="
M81.589790,21.095364 
	C84.943436,24.590048 88.009712,27.838211 91.660721,31.705799 
	C77.515984,32.583267 76.757195,32.041653 72.251579,18.081280 
	C75.670486,19.126713 78.486450,19.987776 81.589790,21.095364 
z"/>
<path fill="#F49748" opacity="1.000000" stroke="none" 
	d="
M75.755089,50.779884 
	C74.334534,52.100819 73.167099,53.173481 71.999672,54.246143 
	C71.745422,54.077244 71.491165,53.908344 71.236916,53.739445 
	C73.429573,47.985260 75.535553,42.194744 77.914467,36.518616 
	C78.246346,35.726746 79.898567,35.141331 80.977333,35.075108 
	C84.087708,34.884171 87.217392,35.007664 90.339493,35.007664 
	C90.676003,35.408478 91.012512,35.809292 91.349022,36.210106 
	C86.235420,40.983940 81.121819,45.757774 75.755089,50.779884 
z"/>
<path fill="#F49442" opacity="1.000000" stroke="none" 
	d="
M46.811920,41.313343 
	C44.702160,39.431854 42.842960,37.820335 40.584381,35.862640 
	C51.645878,33.515881 53.775684,34.795486 55.917400,44.422680 
	C52.101395,46.140541 49.389828,44.489834 46.811920,41.313343 
z"/>
</svg>