<?xml version="1.0" encoding="UTF-8"?>
<svg version="1.1" xmlns="http://www.w3.org/2000/svg" width="100" height="100">
<path d="M0 0 C2.13870239 -0.36076355 2.13870239 -0.36076355 4.81689453 -0.34057617 C5.81778107 -0.34034958 6.8186676 -0.34012299 7.84988403 -0.33988953 C9.47493362 -0.31666374 9.47493362 -0.31666374 11.1328125 -0.29296875 C12.79327103 -0.28660149 12.79327103 -0.28660149 14.48727417 -0.28010559 C18.0334271 -0.26327214 21.57901797 -0.2256108 25.125 -0.1875 C27.52473139 -0.17245922 29.92447167 -0.15876977 32.32421875 -0.14648438 C38.21633859 -0.11335338 44.10812915 -0.06310777 50 0 C50.495 1.98 50.495 1.98 51 4 C50.43410156 4.12117188 49.86820313 4.24234375 49.28515625 4.3671875 C48.55167969 4.53476562 47.81820312 4.70234375 47.0625 4.875 C46.33160156 5.03742187 45.60070313 5.19984375 44.84765625 5.3671875 C42.79299706 5.82961523 42.79299706 5.82961523 42 8 C42 10.64 42 13.28 42 16 C29.13 16.33 16.26 16.66 3 17 C3 17.99 3 18.98 3 20 C24.78 20.495 24.78 20.495 47 21 C47 20.01 47 19.02 47 18 C48.65 18.33 50.3 18.66 52 19 C52.08114106 20.77007714 52.13925505 22.54122098 52.1875 24.3125 C52.23970703 25.79169922 52.23970703 25.79169922 52.29296875 27.30078125 C52 30 52 30 50.77539062 31.6444397 C48.48368351 33.39422205 47.16696712 33.38001045 44.30078125 33.38818359 C42.87415161 33.40236832 42.87415161 33.40236832 41.41870117 33.4168396 C40.39365479 33.41076691 39.3686084 33.40469421 38.3125 33.3984375 C37.25844971 33.40130768 36.20439941 33.40417786 35.1184082 33.40713501 C32.88915469 33.40917713 30.65988333 33.40363698 28.43066406 33.39111328 C25.01326532 33.37506231 21.59704935 33.39095759 18.1796875 33.41015625 C16.01562238 33.40817385 13.851558 33.40433023 11.6875 33.3984375 C10.66245361 33.40451019 9.63740723 33.41058289 8.58129883 33.4168396 C7.6302124 33.40738312 6.67912598 33.39792664 5.69921875 33.38818359 C4.86221436 33.38579681 4.02520996 33.38341003 3.1628418 33.38095093 C0.49380661 32.91084191 -0.39457306 32.15301458 -2 30 C-2.37231445 27.22851562 -2.37231445 27.22851562 -2.36328125 23.90625 C-2.36263672 22.71128906 -2.36199219 21.51632813 -2.36132812 20.28515625 C-2.34521484 19.03605469 -2.32910156 17.78695312 -2.3125 16.5 C-2.31572266 15.25089844 -2.31894531 14.00179687 -2.32226562 12.71484375 C-2.26700255 3.40050383 -2.26700255 3.40050383 0 0 Z " fill="#F49545" transform="translate(5,43)"/>
<path d="M0 0 C0 7.26 0 14.52 0 22 C-2.866875 23.60875 -5.73375 25.2175 -8.6875 26.875 C-9.58170654 27.3788623 -10.47591309 27.88272461 -11.3972168 28.40185547 C-12.11562744 28.80291504 -12.83403809 29.20397461 -13.57421875 29.6171875 C-14.30213623 30.02565918 -15.03005371 30.43413086 -15.7800293 30.85498047 C-22.18635179 34.15924226 -26.96836561 34.17760529 -34.0625 33.8125 C-35.05572266 33.78091797 -36.04894531 33.74933594 -37.07226562 33.71679688 C-38.02939453 33.67232422 -38.98652344 33.62785156 -39.97265625 33.58203125 C-40.84156494 33.54311768 -41.71047363 33.5042041 -42.60571289 33.46411133 C-45.40815348 32.92088307 -46.86533764 31.85333828 -49 30 C-48.25 25.25 -48.25 25.25 -46 23 C-43.67724823 22.59952556 -41.34260643 22.2602896 -39 22 C-39.33 19.69 -39.66 17.38 -40 15 C-45.61 14.67 -51.22 14.34 -57 14 C-52.21248221 9.21248221 -45.61141996 8.07038708 -38.88867188 7.96777344 C-36.65408948 8.02468639 -34.42118128 8.10245529 -32.1875 8.1875 C-22.75679887 8.50393277 -15.50224984 5.82056861 -7 2 C-2.2745098 0 -2.2745098 0 0 0 Z " fill="#F49545" transform="translate(97,26)"/>
<path d="M0 0 C0.66 0.33 1.32 0.66 2 1 C1.67 1.33 1.34 1.66 1 2 C3.97 2.495 3.97 2.495 7 3 C7 3.33 7 3.66 7 4 C2.71 4 -1.58 4 -6 4 C-3 1 -3 1 0 0 Z " fill="#F5A565" transform="translate(46,36)"/>
</svg>
