<?xml version="1.0" encoding="UTF-8"?>
<svg version="1.1" xmlns="http://www.w3.org/2000/svg" width="100" height="100">
<path d="M0 0 C6.93 0 13.86 0 21 0 C21.33 0.99 21.66 1.98 22 3 C22.99 3.33 23.98 3.66 25 4 C24.67 15.55 24.34 27.1 24 39 C21.36 39 18.72 39 16 39 C16 36.03 16 33.06 16 30 C14.68 30 13.36 30 12 30 C12 32.97 12 35.94 12 39 C11.34 39 10.68 39 10 39 C10 36.03 10 33.06 10 30 C8.35 30 6.7 30 5 30 C5 32.97 5 35.94 5 39 C2.36 39 -0.28 39 -3 39 C-3 27.12 -3 15.24 -3 3 C-2.34 3 -1.68 3 -1 3 C-0.67 2.01 -0.34 1.02 0 0 Z M5 9 C5 14.28 5 19.56 5 25 C11.65140679 25.36636582 11.65140679 25.36636582 16 22 C15.835 21.236875 15.67 20.47375 15.5 19.6875 C15 17 15 17 15 14 C14.52870015 11.22916194 14.52870015 11.22916194 13 9 C10.36 9 7.72 9 5 9 Z " fill="#F49C52" transform="translate(66,28)"/>
<path d="M0 0 C6.93 0 13.86 0 21 0 C21.33 0.99 21.66 1.98 22 3 C22.66 3 23.32 3 24 3 C24 14.88 24 26.76 24 39 C21.36 39 18.72 39 16 39 C16 36.03 16 33.06 16 30 C14.35 30 12.7 30 11 30 C11 32.97 11 35.94 11 39 C10.67 39 10.34 39 10 39 C10 36.03 10 33.06 10 30 C8.35 30 6.7 30 5 30 C5 32.97 5 35.94 5 39 C2.36 39 -0.28 39 -3 39 C-3.495 21.675 -3.495 21.675 -4 4 C-3.01 3.67 -2.02 3.34 -1 3 C-0.67 2.01 -0.34 1.02 0 0 Z M5 9 C5 14.28 5 19.56 5 25 C11.623581 25.74003605 11.623581 25.74003605 14.4375 23 C14.953125 22.34 15.46875 21.68 16 21 C15.649375 20.0925 15.29875 19.185 14.9375 18.25 C13.9943901 14.98055236 14.1168382 14.09106632 15 11 C14.34 10.34 13.68 9.68 13 9 C10.36 9 7.72 9 5 9 Z " fill="#F49B50" transform="translate(14,28)"/>
<path d="M0 0 C1.93939453 -0.00193359 1.93939453 -0.00193359 3.91796875 -0.00390625 C4.59263184 -0.00181152 5.26729492 0.0002832 5.96240234 0.00244141 C8.02318689 0.00779157 10.08375349 0.00249215 12.14453125 -0.00390625 C13.43746094 -0.00261719 14.73039062 -0.00132813 16.0625 0 C17.25423828 0.00112793 18.44597656 0.00225586 19.67382812 0.00341797 C22.53125 0.1328125 22.53125 0.1328125 24.53125 1.1328125 C24.53125 2.4528125 24.53125 3.7728125 24.53125 5.1328125 C13.64125 5.1328125 2.75125 5.1328125 -8.46875 5.1328125 C-8.46875 3.8128125 -8.46875 2.4928125 -8.46875 1.1328125 C-5.61867869 -0.29222315 -3.18254745 0.00301215 0 0 Z " fill="#F6AA69" transform="translate(68.46875,67.8671875)"/>
<path d="M0 0 C1.93939453 -0.00193359 1.93939453 -0.00193359 3.91796875 -0.00390625 C4.59263184 -0.00181152 5.26729492 0.0002832 5.96240234 0.00244141 C8.02318689 0.00779157 10.08375349 0.00249215 12.14453125 -0.00390625 C13.43746094 -0.00261719 14.73039062 -0.00132813 16.0625 0 C17.25423828 0.00112793 18.44597656 0.00225586 19.67382812 0.00341797 C22.53125 0.1328125 22.53125 0.1328125 24.53125 1.1328125 C24.53125 2.4528125 24.53125 3.7728125 24.53125 5.1328125 C13.64125 5.1328125 2.75125 5.1328125 -8.46875 5.1328125 C-8.46875 3.8128125 -8.46875 2.4928125 -8.46875 1.1328125 C-5.61867869 -0.29222315 -3.18254745 0.00301215 0 0 Z " fill="#F6AA69" transform="translate(16.46875,67.8671875)"/>
<path d="M0 0 C1.2065625 0.0309375 1.2065625 0.0309375 2.4375 0.0625 C2.7675 1.0525 3.0975 2.0425 3.4375 3.0625 C12.32505731 7.34757227 21.0110218 6.80099337 30.17578125 4.01171875 C32.52986361 3.14310506 32.52986361 3.14310506 34.54296875 1.39453125 C35.16816406 0.95496094 35.79335937 0.51539062 36.4375 0.0625 C37.4275 0.3925 38.4175 0.7225 39.4375 1.0625 C35.79261386 5.70144599 31.02631081 7.66350371 25.4375 9.0625 C16.60966561 9.92537103 8.70876868 9.25520971 0.4375 6.0625 C-0.5525 5.7325 -1.5425 5.4025 -2.5625 5.0625 C-3.3125 3.0625 -3.3125 3.0625 -3.5625 1.0625 C-2.5625 0.0625 -2.5625 0.0625 0 0 Z " fill="#F6A967" transform="translate(32.5625,75.9375)"/>
<path d="M0 0 C1.65672637 0.37966646 3.32070245 0.73760976 5 1 C5.495 3.475 5.495 3.475 6 6 C4.02 6 2.04 6 0 6 C-0.495 4.515 -0.495 4.515 -1 3 C-9.88755731 -1.28507227 -18.5735218 -0.73849337 -27.73828125 2.05078125 C-30.09236361 2.91939494 -30.09236361 2.91939494 -32.10546875 4.66796875 C-32.73066406 5.10753906 -33.35585938 5.54710937 -34 6 C-34.99 5.67 -35.98 5.34 -37 5 C-28.49284406 -5.82728938 -11.39911426 -5.27736771 0 0 Z " fill="#F6AB6C" transform="translate(66,20)"/>
<path d="M0 0 C0 0.33 0 0.66 0 1 C-0.67546875 1.18175781 -1.3509375 1.36351562 -2.046875 1.55078125 C-3.38492188 1.92783203 -3.38492188 1.92783203 -4.75 2.3125 C-5.63171875 2.55613281 -6.5134375 2.79976562 -7.421875 3.05078125 C-10.06325169 3.87483568 -10.06325169 3.87483568 -12.140625 5.66796875 C-12.75421875 6.10753906 -13.3678125 6.54710937 -14 7 C-14.99 6.67 -15.98 6.34 -17 6 C-12.28592606 0.53167423 -7.10797789 -1.90701846 0 0 Z " fill="#F7B278" transform="translate(46,19)"/>
<path d="M0 0 C0.625 2.5625 0.625 2.5625 1 5 C-0.98 5 -2.96 5 -5 5 C-5.66 3.35 -6.32 1.7 -7 0 C-2.25 -1.125 -2.25 -1.125 0 0 Z " fill="#F5A45F" transform="translate(71,21)"/>
<path d="M0 0 C0.99 0.33 1.98 0.66 3 1 C-0.01887244 4.48331435 -2.56909529 5.79157144 -7 7 C-7.66 6.34 -8.32 5.68 -9 5 C-8.43410156 4.72285156 -7.86820313 4.44570312 -7.28515625 4.16015625 C-6.55167969 3.79792969 -5.81820312 3.43570313 -5.0625 3.0625 C-3.96615234 2.52302734 -3.96615234 2.52302734 -2.84765625 1.97265625 C-1.03750973 1.13628173 -1.03750973 1.13628173 0 0 Z " fill="#F7B37A" transform="translate(69,76)"/>
<path d="M0 0 C2.475 0.495 2.475 0.495 5 1 C4.67 2.65 4.34 4.3 4 6 C2.68 6 1.36 6 0 6 C0 4.02 0 2.04 0 0 Z " fill="#F59E55" transform="translate(74,45)"/>
<path d="M0 0 C2.475 0.495 2.475 0.495 5 1 C4.67 2.65 4.34 4.3 4 6 C2.68 6 1.36 6 0 6 C0 4.02 0 2.04 0 0 Z " fill="#F5A15A" transform="translate(22,45)"/>
<path d="M0 0 C2.475 0.495 2.475 0.495 5 1 C4.67 1.99 4.34 2.98 4 4 C2.68 4 1.36 4 0 4 C0 2.68 0 1.36 0 0 Z " fill="#F5A15A" transform="translate(74,39)"/>
<path d="M0 0 C1.32 0 2.64 0 4 0 C4 1.32 4 2.64 4 4 C2.68 4 1.36 4 0 4 C0 2.68 0 1.36 0 0 Z " fill="#F59F57" transform="translate(22,39)"/>
</svg>
