<?xml version="1.0" encoding="UTF-8"?>
<svg version="1.1" xmlns="http://www.w3.org/2000/svg" width="100" height="100">
<path d="M0 0 C2.92592996 2.02028497 5.28838348 4.13226341 7.625 6.8125 C7.625 7.4725 7.625 8.1325 7.625 8.8125 C9.5121875 8.9671875 9.5121875 8.9671875 11.4375 9.125 C14.13398757 9.45907811 15.38817068 9.64227893 17.625 11.25 C18.625 12.8125 18.625 12.8125 18.625 14.8125 C20.3575 14.626875 20.3575 14.626875 22.125 14.4375 C26.86900686 14.41231058 29.26835364 16.32610041 32.8046875 19.30078125 C34.68572369 20.96632423 34.68572369 20.96632423 37.4375 22.3125 C40.50541628 24.41621402 41.37494269 26.32549803 42.625 29.8125 C43.17872767 33.68100835 43.00893861 36.923379 41.4375 40.5625 C36.83650179 46.27408398 31.71644964 48.48034915 24.625 49.8125 C21.74932721 49.9228102 18.94282338 49.88596226 16.0703125 49.72265625 C13.36574287 49.82202542 11.97789817 50.54854644 9.625 51.8125 C6.05743511 52.01069805 2.94537692 51.875319 -0.5625 51.1875 C-3.29475629 50.54728991 -3.29475629 50.54728991 -5.1875 51.765625 C-9.91500327 54.02807299 -16.50839267 53.76984894 -21.43359375 52.125 C-23.20802516 51.14148144 -24.76290217 50.04348723 -26.375 48.8125 C-27.05433594 48.36519531 -27.73367187 47.91789062 -28.43359375 47.45703125 C-33.78312128 43.79579498 -37.52654099 40.28913135 -38.78515625 33.6484375 C-39.19008704 27.60562418 -37.30178335 23.35817855 -33.375 18.8125 C-29.34375 15.8125 -29.34375 15.8125 -26.375 15.8125 C-26.2925 14.78125 -26.21 13.75 -26.125 12.6875 C-25.01286319 6.9414598 -22.91626559 4.0077672 -18.3125 0.4375 C-12.56896454 -2.52091589 -5.95038126 -2.09365267 0 0 Z " fill="#F49444" transform="translate(39.375,31.1875)"/>
<path d="M0 0 C3.93472545 1.59601314 6.6084335 3.41265025 9 7 C12.09075862 8.4809885 15.16568898 9.7110435 18.40234375 10.83203125 C24.55710296 13.06064206 29.97037573 15.6654456 34 21 C35.56226818 25.33715405 35.53437447 28.67812632 33.8125 32.9375 C31.91838041 35.09287747 30.70946993 36.09684336 28 37 C26.68 37 25.36 37 24 37 C23.62875 35.88625 23.2575 34.7725 22.875 33.625 C20.61112892 29.06468416 17.2928567 26.53589946 13.25 23.625 C12.37384033 22.98232178 12.37384033 22.98232178 11.47998047 22.32666016 C7.12010003 19.32063102 3.18730123 18.0397454 -2 17 C-2 16.34 -2 15.68 -2 15 C-4.72833495 13.87656796 -7.32144635 12.9180627 -10.1875 12.1875 C-13 11 -13 11 -14.375 8.375 C-14.684375 7.199375 -14.684375 7.199375 -15 6 C-7.22460713 -0.59218091 -7.22460713 -0.59218091 0 0 Z " fill="#F4984B" transform="translate(62,24)"/>
<path d="M0 0 C0.66 0.33 1.32 0.66 2 1 C-0.31 3.31 -2.62 5.62 -5 8 C-5.33 7.34 -5.66 6.68 -6 6 C-2.25 1.125 -2.25 1.125 0 0 Z " fill="#F6A96D" transform="translate(21,32)"/>
<path d="M0 0 C0.66 0.33 1.32 0.66 2 1 C-0.31 3.31 -2.62 5.62 -5 8 C-5.33 7.34 -5.66 6.68 -6 6 C-4 4 -2 2 0 0 Z " fill="#F6A96B" transform="translate(9,48)"/>
</svg>
