<?xml version="1.0" encoding="UTF-8"?>
<svg version="1.1" xmlns="http://www.w3.org/2000/svg" width="100" height="100">
<path d="M0 0 C18.15 0 36.3 0 55 0 C55.33 8.518125 55.66 17.03625 56 25.8125 C56.15662109 29.78180542 56.15662109 29.78180542 56.31640625 33.83129883 C56.71875253 44.28589496 57.0916431 54.73595444 57.125 65.19921875 C57.13188843 66.38328056 57.13188843 66.38328056 57.13891602 67.59126282 C57.12388376 72.87611624 57.12388376 72.87611624 56 74 C54.19490627 74.09899561 52.38593072 74.12799151 50.578125 74.12939453 C49.42022461 74.13254669 48.26232422 74.13569885 47.06933594 74.13894653 C45.17876465 74.13591019 45.17876465 74.13591019 43.25 74.1328125 C41.96641602 74.13376923 40.68283203 74.13472595 39.36035156 74.13571167 C36.63996176 74.13718831 33.91960475 74.13503519 31.19921875 74.13037109 C27.70515331 74.12467381 24.21116467 74.12795299 20.71710205 74.13394356 C17.39472847 74.13841754 14.07237577 74.13528885 10.75 74.1328125 C9.48961914 74.13483673 8.22923828 74.13686096 6.93066406 74.13894653 C5.77276367 74.13579437 4.61486328 74.13264221 3.421875 74.12939453 C2.39674805 74.12859894 1.37162109 74.12780334 0.31542969 74.12698364 C-2 74 -2 74 -3 73 C-3.02962622 70.15030425 -2.99429712 67.32779853 -2.9140625 64.48046875 C-2.89318573 63.60215393 -2.87230896 62.72383911 -2.85079956 61.81890869 C-2.7808396 58.94161197 -2.70323539 56.06458274 -2.625 53.1875 C-2.57465033 51.22339429 -2.52452061 49.25928292 -2.47460938 47.29516602 C-2.3255732 41.52984283 -2.16450966 35.76489984 -2 30 C-1.97723999 29.19071045 -1.95447998 28.3814209 -1.93103027 27.54760742 C-1.79821674 22.84385725 -1.65397199 18.14061571 -1.5 13.4375 C-1.46471191 12.28725342 -1.42942383 11.13700684 -1.39306641 9.9519043 C-1.35616699 8.91461182 -1.31926758 7.87731934 -1.28125 6.80859375 C-1.25095703 5.91970459 -1.22066406 5.03081543 -1.18945312 4.11499023 C-1 2 -1 2 0 0 Z M23.25 25.625 C21.37279195 28.05735799 21.00995784 28.8780165 20.75 32.0625 C22.30418213 35.714828 24.14854511 36.85961092 27.50390625 38.82421875 C27.99761719 39.21222656 28.49132812 39.60023437 29 40 C29 40.99 29 41.98 29 43 C26.69 43 24.38 43 22 43 C22 44.32 22 45.64 22 47 C22.99 47.33 23.98 47.66 25 48 C25.33 48.66 25.66 49.32 26 50 C26.99 50 27.98 50 29 50 C29.33 49.01 29.66 48.02 30 47 C30.99 46.34 31.98 45.68 33 45 C33.66707548 41.58500409 33.66707548 41.58500409 33 38 C30.75503458 35.6706919 30.75503458 35.6706919 28 34 C26.9826127 33.01769502 25.97403883 32.02530403 25 31 C25.33 30.34 25.66 29.68 26 29 C27.98 29 29.96 29 32 29 C32.30697031 26.03837129 32.30697031 26.03837129 30.6875 24.3125 C27.37672764 21.73745483 26.0897767 22.91430405 23.25 25.625 Z " fill="#F49546" transform="translate(23,21)"/>
<path d="M0 0 C4.32351474 2.09172204 6.30719585 5.17500903 8.1640625 9.40234375 C8.95039667 11.80900287 9.12250971 13.86367229 8.80859375 16.375 C7.81859375 16.375 6.82859375 16.375 5.80859375 16.375 C5.62683594 15.76011719 5.44507812 15.14523438 5.2578125 14.51171875 C5.00644531 13.70347656 4.75507812 12.89523437 4.49609375 12.0625 C4.25246094 11.26199219 4.00882813 10.46148437 3.7578125 9.63671875 C2.27488102 6.10331411 0.5643178 4.72649956 -2.87890625 3.125 C-8.14362262 1.93298875 -12.22550351 2.32651854 -17.00390625 4.875 C-20.02476651 8.32741173 -21.03909569 11.99059886 -22.19140625 16.375 C-23.18140625 16.375 -24.17140625 16.375 -25.19140625 16.375 C-24.64365271 9.52808077 -22.64946938 5.71015997 -17.69140625 1 C-12.0319569 -1.62760148 -6.01137247 -1.71447343 0 0 Z " fill="#F5A667" transform="translate(58.19140625,1.625)"/>
<path d="M0 0 C0.556875 0.226875 1.11375 0.45375 1.6875 0.6875 C1.6875 1.3475 1.6875 2.0075 1.6875 2.6875 C-0.6225 3.3475 -2.9325 4.0075 -5.3125 4.6875 C-5.9725 4.0275 -6.6325 3.3675 -7.3125 2.6875 C-2.88173077 -0.38942308 -2.88173077 -0.38942308 0 0 Z " fill="#F6AD74" transform="translate(46.3125,1.3125)"/>
</svg>
