<?xml version="1.0" encoding="UTF-8"?>
<svg version="1.1" xmlns="http://www.w3.org/2000/svg" width="100" height="100">
<path d="M0 0 C0.79792969 0.00386719 1.59585938 0.00773438 2.41796875 0.01171875 C3.21589844 0.00785156 4.01382813 0.00398437 4.8359375 0 C10.79136108 0.01011108 10.79136108 0.01011108 11.91796875 1.13671875 C12.1283278 3.25783917 12.28646976 5.38425294 12.41796875 7.51171875 C12.63376922 10.98764783 12.81551795 13.82936635 13.91796875 17.13671875 C17.87796875 17.13671875 21.83796875 17.13671875 25.91796875 17.13671875 C26.5575171 20.33446048 27.05641513 23.00093726 27.23095703 26.17675781 C27.2741507 26.93394104 27.31734436 27.69112427 27.36184692 28.47125244 C27.42443192 29.67464264 27.42443192 29.67464264 27.48828125 30.90234375 C27.55630447 32.15334869 27.55630447 32.15334869 27.6257019 33.42962646 C27.71993903 35.1844307 27.81227851 36.93933776 27.90283203 38.69433594 C28.04322662 41.39167305 28.1931656 44.08837105 28.34375 46.78515625 C28.43417128 48.4908549 28.52403476 50.19658323 28.61328125 51.90234375 C28.65905304 52.71270081 28.70482483 53.52305786 28.75198364 54.35797119 C28.84734049 56.28265408 28.88832132 58.20990319 28.91796875 60.13671875 C27.91796875 61.13671875 27.91796875 61.13671875 24.31616211 61.25024414 C22.71337019 61.250085 21.11057315 61.24438938 19.5078125 61.234375 C18.66577774 61.23296005 17.82374298 61.2315451 16.95619202 61.23008728 C14.2559154 61.22447138 11.55572047 61.21191623 8.85546875 61.19921875 C7.02929807 61.1942058 5.20312609 61.18964254 3.37695312 61.18554688 C-1.10940667 61.17449679 -5.59570509 61.15722154 -10.08203125 61.13671875 C-10.16544133 53.52396043 -9.93008303 45.97650052 -9.4609375 38.37890625 C-9.39672104 37.30923615 -9.33250458 36.23956604 -9.26634216 35.13748169 C-9.1309905 32.90047099 -8.99393242 30.66356292 -8.85522461 28.42675781 C-8.64298525 24.98666025 -8.43939489 21.54611859 -8.23632812 18.10546875 C-8.10338379 15.92574952 -7.96993868 13.74606076 -7.8359375 11.56640625 C-7.77547745 10.53425995 -7.7150174 9.50211365 -7.65272522 8.43869019 C-7.56274513 7.02053513 -7.56274513 7.02053513 -7.47094727 5.57373047 C-7.39433617 4.32110916 -7.39433617 4.32110916 -7.31617737 3.04318237 C-6.79555163 -1.19585453 -3.58796696 0.00609162 0 0 Z M11.91796875 24.13671875 C11.91796875 28.75671875 11.91796875 33.37671875 11.91796875 38.13671875 C12.24796875 38.13671875 12.57796875 38.13671875 12.91796875 38.13671875 C12.91796875 33.51671875 12.91796875 28.89671875 12.91796875 24.13671875 C12.58796875 24.13671875 12.25796875 24.13671875 11.91796875 24.13671875 Z M1.91796875 37.13671875 C0.69155595 39.11309622 -0.48826155 41.11850255 -1.64453125 43.13671875 C-2.28519531 44.25046875 -2.92585938 45.36421875 -3.5859375 46.51171875 C-4.07964844 47.37796875 -4.57335938 48.24421875 -5.08203125 49.13671875 C-4.09203125 49.46671875 -3.10203125 49.79671875 -2.08203125 50.13671875 C-1.42203125 49.80671875 -0.76203125 49.47671875 -0.08203125 49.13671875 C-0.41203125 51.77671875 -0.74203125 54.41671875 -1.08203125 57.13671875 C1.4077941 54.85926086 3.02165872 52.51336637 4.66796875 49.57421875 C5.1165625 48.78917969 5.56515625 48.00414062 6.02734375 47.1953125 C6.32125 46.51597656 6.61515625 45.83664063 6.91796875 45.13671875 C6.58796875 44.47671875 6.25796875 43.81671875 5.91796875 43.13671875 C4.59796875 43.46671875 3.27796875 43.79671875 1.91796875 44.13671875 C2.24796875 41.82671875 2.57796875 39.51671875 2.91796875 37.13671875 C2.58796875 37.13671875 2.25796875 37.13671875 1.91796875 37.13671875 Z M10.91796875 39.13671875 C10.91796875 43.09671875 10.91796875 47.05671875 10.91796875 51.13671875 C11.24796875 51.13671875 11.57796875 51.13671875 11.91796875 51.13671875 C11.91796875 47.17671875 11.91796875 43.21671875 11.91796875 39.13671875 C11.58796875 39.13671875 11.25796875 39.13671875 10.91796875 39.13671875 Z " fill="#F4974A" transform="translate(51.08203125,13.86328125)"/>
<path d="M0 0 C10.60507633 -0.06952305 21.21009841 -0.12282304 31.81535625 -0.15543652 C36.73986043 -0.17108968 41.66420863 -0.19232168 46.58862305 -0.22631836 C51.34132736 -0.25892412 56.09388169 -0.27685564 60.84668922 -0.28463173 C62.65957818 -0.29017304 64.47245897 -0.30099388 66.28528404 -0.31719017 C68.82537932 -0.3389807 71.36485553 -0.34196626 73.9050293 -0.34057617 C74.65381348 -0.351362 75.40259766 -0.36214783 76.17407227 -0.3732605 C80.55999676 -0.34730378 83.71911752 -0.04996066 87 3 C87 4.98 87 6.96 87 9 C56.97 9 26.94 9 -4 9 C-4 6.69 -4 4.38 -4 2 C-2.68 2 -1.36 2 0 2 C0 1.34 0 0.68 0 0 Z " fill="#F49342" transform="translate(8,80)"/>
<path d="M0 0 C2.31 0.66 4.62 1.32 7 2 C6.67 3.32 6.34 4.64 6 6 C5.01 6 4.02 6 3 6 C3 8.31 3 10.62 3 13 C-1.16558295 14.79291843 -4.75130248 13.0091587 -8.75 11.5625 C-11.1425 10.716875 -13.535 9.87125 -16 9 C-16.33 14.61 -16.66 20.22 -17 26 C-18.32 26 -19.64 26 -21 26 C-21 18.41 -21 10.82 -21 3 C-15.44271795 3.69466026 -11.57039798 4.27633708 -6.5 6.0625 C-5.4584375 6.42472656 -4.416875 6.78695312 -3.34375 7.16015625 C-2.5703125 7.43730469 -1.796875 7.71445312 -1 8 C-1.0309375 6.2984375 -1.0309375 6.2984375 -1.0625 4.5625 C-1 1 -1 1 0 0 Z " fill="#F4994D" transform="translate(31,49)"/>
<path d="M0 0 C1.65 0 3.3 0 5 0 C6 1 6 1 6.09765625 3.94140625 C6.08605469 5.13636719 6.07445313 6.33132812 6.0625 7.5625 C6.05347656 8.76003906 6.04445313 9.95757812 6.03515625 11.19140625 C6.02355469 12.11824219 6.01195313 13.04507813 6 14 C4.35 14 2.7 14 1 14 C0.67 9.38 0.34 4.76 0 0 Z " fill="#F5A15D" transform="translate(84,61)"/>
</svg>
