<?xml version="1.0" encoding="UTF-8"?>
<svg version="1.1" xmlns="http://www.w3.org/2000/svg" width="100" height="100">
<path d="M0 0 C6.88861654 5.61931291 11.28286454 12.8986977 13.03515625 21.66015625 C13.88552423 31.89727847 12.3071398 40.7899994 5.6953125 48.84765625 C-1.68191737 56.90185545 -10.10166259 61.37083007 -21.08984375 61.97265625 C-30.12154453 61.83740616 -38.49009317 57.83672753 -44.96484375 51.66015625 C-51.91783412 43.90125109 -55.34919179 35.57384295 -55.17578125 25.1171875 C-54.33851013 15.36452945 -49.7962713 6.96117619 -42.65234375 0.34765625 C-29.59680596 -10.0736156 -13.29835369 -9.54573183 0 0 Z M-23.96484375 3.66015625 C-23.96484375 5.31015625 -23.96484375 6.96015625 -23.96484375 8.66015625 C-24.56296875 8.76328125 -25.16109375 8.86640625 -25.77734375 8.97265625 C-28.42623808 9.8051659 -29.36807781 10.37906205 -30.96484375 12.66015625 C-31.92767729 16.37394275 -32.44915224 18.63200632 -30.7890625 22.15625 C-28.75521011 24.9478975 -26.78238537 26.46014738 -23.90234375 28.34765625 C-19.09093071 31.53406929 -19.09093071 31.53406929 -16.96484375 33.66015625 C-17.33984375 36.28515625 -17.33984375 36.28515625 -17.96484375 38.66015625 C-22.48202756 40.02899983 -25.55258638 39.13090871 -29.96484375 37.66015625 C-30.29484375 39.64015625 -30.62484375 41.62015625 -30.96484375 43.66015625 C-28.65484375 44.32015625 -26.34484375 44.98015625 -23.96484375 45.66015625 C-23.96484375 47.31015625 -23.96484375 48.96015625 -23.96484375 50.66015625 C-22.31484375 50.66015625 -20.66484375 50.66015625 -18.96484375 50.66015625 C-18.92359375 49.91765625 -18.88234375 49.17515625 -18.83984375 48.41015625 C-17.61734424 44.56801492 -15.29939531 43.7697705 -11.96484375 41.66015625 C-9.70986522 38.91496499 -9.96484375 37.36544938 -9.96484375 33.72265625 C-10.51467145 30.30361275 -10.95727041 29.6679143 -13.52734375 27.03515625 C-14.66139222 26.22669834 -15.80869193 25.43667613 -16.96484375 24.66015625 C-18.42661614 23.5605465 -19.88491079 22.45629966 -21.33984375 21.34765625 C-22.54698264 20.45021404 -23.75489121 19.5538014 -24.96484375 18.66015625 C-24.08984375 14.78515625 -24.08984375 14.78515625 -22.96484375 13.66015625 C-21.27342719 13.74978687 -19.58524773 13.90593301 -17.90234375 14.09765625 C-16.98324219 14.19949219 -16.06414063 14.30132812 -15.1171875 14.40625 C-14.40691406 14.49003906 -13.69664063 14.57382812 -12.96484375 14.66015625 C-12.63484375 13.01015625 -12.30484375 11.36015625 -11.96484375 9.66015625 C-14.27484375 9.00015625 -16.58484375 8.34015625 -18.96484375 7.66015625 C-18.96484375 6.34015625 -18.96484375 5.02015625 -18.96484375 3.66015625 C-20.61484375 3.66015625 -22.26484375 3.66015625 -23.96484375 3.66015625 Z " fill="#F49647" transform="translate(71.96484375,23.33984375)"/>
<path d="M0 0 C8.04470006 6.61289106 14.25922847 15.31719798 16.12890625 25.75 C17.03456159 39.89900882 15.42675301 51.43900339 6.12890625 62.75 C-1.17892096 70.64302431 -10.49663565 76.24850396 -21.375 76.98828125 C-35.00797777 77.36178749 -45.8125733 74.21105329 -56.03125 64.75 C-65.54077841 54.7961011 -68.30220803 44.14923957 -68.08203125 30.796875 C-67.66410316 19.64180669 -62.22321265 9.07203271 -54.1328125 1.41796875 C-37.48035021 -10.86286268 -17.0865137 -12.22648565 0 0 Z M-54.87109375 9.75 C-62.42959984 20.15663882 -63.98888244 30.17562645 -62.87109375 42.75 C-60.92761215 53.44567057 -53.94369626 61.1096413 -45.24609375 67.25 C-36.37956393 73.09307712 -24.88964587 73.05394547 -14.73828125 71.16796875 C-5.19213528 68.18989757 3.42609959 60.59895458 8.12890625 51.75 C13.03474609 40.71703529 12.80954111 30.18004425 9.12890625 18.75 C7.48663851 15.38607998 5.5427652 12.60222484 3.12890625 9.75 C2.34 8.79673828 2.34 8.79673828 1.53515625 7.82421875 C-4.46867525 1.21150811 -12.46556763 -2.88240012 -21.375 -3.48828125 C-35.42027817 -3.87833156 -45.18911251 -1.11891414 -54.87109375 9.75 Z " fill="#F5A059" transform="translate(76.87109375,16.25)"/>
</svg>
