<?xml version="1.0" encoding="UTF-8"?>
<svg version="1.1" xmlns="http://www.w3.org/2000/svg" width="100" height="100">
<path d="M0 0 C1.13787964 -0.00315216 2.27575928 -0.00630432 3.44812012 -0.009552 C4.6866272 -0.00752777 5.92513428 -0.00550354 7.20117188 -0.00341797 C8.46255981 -0.00437469 9.72394775 -0.00533142 11.02355957 -0.00631714 C13.69689325 -0.00699922 16.37013624 -0.00564076 19.04345703 -0.00097656 C22.47698878 0.00472073 25.91044237 0.00144152 29.34397125 -0.00454903 C32.6088743 -0.00902309 35.87376781 -0.0058943 39.13867188 -0.00341797 C40.37717896 -0.0054422 41.61568604 -0.00746643 42.89172363 -0.009552 C44.02960327 -0.00639984 45.16748291 -0.00324768 46.33984375 0 C47.34720581 0.00079559 48.35456787 0.00159119 49.39245605 0.00241089 C51.66992188 0.12939453 51.66992188 0.12939453 52.66992188 1.12939453 C52.76975245 3.11696481 52.80072941 5.10806973 52.80273438 7.09814453 C52.80466797 8.91378906 52.80466797 8.91378906 52.80664062 10.76611328 C52.80277344 12.04099609 52.79890625 13.31587891 52.79492188 14.62939453 C52.80072266 16.54171875 52.80072266 16.54171875 52.80664062 18.49267578 C52.80535156 19.70310547 52.8040625 20.91353516 52.80273438 22.16064453 C52.80160645 23.28019531 52.80047852 24.39974609 52.79931641 25.55322266 C52.66992188 28.12939453 52.66992188 28.12939453 51.66992188 29.12939453 C49.89546178 29.22833231 48.11705936 29.25738546 46.33984375 29.25878906 C45.20196411 29.26194122 44.06408447 29.26509338 42.89172363 29.26834106 C41.65321655 29.26631683 40.41470947 29.2642926 39.13867188 29.26220703 C37.87728394 29.26316376 36.615896 29.26412048 35.31628418 29.2651062 C32.6429505 29.26578828 29.96970751 29.26442982 27.29638672 29.25976562 C23.86285497 29.25406834 20.42940138 29.25734754 16.9958725 29.26333809 C13.73096945 29.26781215 10.46607594 29.26468337 7.20117188 29.26220703 C5.96266479 29.26423126 4.72415771 29.26625549 3.44812012 29.26834106 C2.31024048 29.2651889 1.17236084 29.26203674 0 29.25878906 C-1.00736206 29.25799347 -2.01472412 29.25719788 -3.0526123 29.25637817 C-5.33007812 29.12939453 -5.33007812 29.12939453 -6.33007812 28.12939453 C-6.4299087 26.14182426 -6.46088566 24.15071934 -6.46289062 22.16064453 C-6.46417969 20.95021484 -6.46546875 19.73978516 -6.46679688 18.49267578 C-6.46292969 17.21779297 -6.4590625 15.94291016 -6.45507812 14.62939453 C-6.45894531 13.35451172 -6.4628125 12.07962891 -6.46679688 10.76611328 C-6.46550781 9.55568359 -6.46421875 8.34525391 -6.46289062 7.09814453 C-6.4617627 5.97859375 -6.46063477 4.85904297 -6.45947266 3.70556641 C-6.22793529 -0.90421147 -4.09754724 0.00323616 0 0 Z " fill="#F49749" transform="translate(16.330078125,30.87060546875)"/>
<path d="M0 0 C15.89958572 -1.53107122 15.89958572 -1.53107122 21.19921875 2.33203125 C27.66512691 10.77623659 28.07265772 18.68394613 27 29 C24.36 29 21.72 29 19 29 C18.896875 29.94875 18.79375 30.8975 18.6875 31.875 C18 35 18 35 15 37 C11.4375 36.8125 11.4375 36.8125 8 36 C6 33 6 33 6 29 C4.02 29 2.04 29 0 29 C0 19.43 0 9.86 0 0 Z M7 3 C7 6.3 7 9.6 7 13 C11.29 13 15.58 13 20 13 C20 9.8256378 19.58464929 8.93707538 18 6.3125 C17.34 5.219375 16.68 4.12625 16 3 C13.03 3 10.06 3 7 3 Z M11 27 C10.34 27.66 9.68 28.32 9 29 C9.32041397 31.60280568 9.32041397 31.60280568 10 34 C11.89179203 34.6814823 11.89179203 34.6814823 14 35 C14.66 34.34 15.32 33.68 16 33 C15.67958603 30.39719432 15.67958603 30.39719432 15 28 C13.10820797 27.3185177 13.10820797 27.3185177 11 27 Z " fill="#F49A4F" transform="translate(70,41)"/>
<path d="M0 0 C0.9215538 0.00222061 1.8431076 0.00444122 2.79258728 0.00672913 C3.83359085 0.00680466 4.87459442 0.00688019 5.94714355 0.00695801 C7.07941879 0.01211929 8.21169403 0.01728058 9.37828064 0.02259827 C10.53106003 0.02401321 11.68383942 0.02542816 12.87155151 0.02688599 C16.57043503 0.03250446 20.26925903 0.0450601 23.96812439 0.05775452 C26.46877456 0.06276714 28.96942567 0.06733045 31.47007751 0.07142639 C37.61528027 0.0824799 43.76044808 0.099236 49.90562439 0.12025452 C49.90562439 3.09025452 49.90562439 6.06025452 49.90562439 9.12025452 C38.02562439 9.12025452 26.14562439 9.12025452 13.90562439 9.12025452 C13.90562439 11.10025452 13.90562439 13.08025452 13.90562439 15.12025452 C11.90562439 17.12025452 11.90562439 17.12025452 9.03062439 17.49525452 C5.90562439 17.12025452 5.90562439 17.12025452 3.53062439 15.37025452 C1.90562439 13.12025452 1.90562439 13.12025452 1.90562439 9.12025452 C0.25562439 9.12025452 -1.39437561 9.12025452 -3.09437561 9.12025452 C-3.19203186 2.96791077 -3.19203186 2.96791077 -3.09437561 1.12025452 C-2.09437561 0.12025452 -2.09437561 0.12025452 0 0 Z M6.90562439 7.12025452 C5.1337153 8.47469752 5.1337153 8.47469752 3.90562439 10.12025452 C4.62125705 12.13647782 4.62125705 12.13647782 5.90562439 14.12025452 C7.84847607 15.10642587 7.84847607 15.10642587 9.90562439 15.12025452 C10.56562439 14.46025452 11.22562439 13.80025452 11.90562439 13.12025452 C11.58521042 10.51744884 11.58521042 10.51744884 10.90562439 8.12025452 C9.0686165 7.34783183 9.0686165 7.34783183 6.90562439 7.12025452 Z " fill="#F49C53" transform="translate(18.094375610351563,60.87974548339844)"/>
<path d="M0 0 C0.2475 0.639375 0.495 1.27875 0.75 1.9375 C1.81562433 4.18741541 1.81562433 4.18741541 4.125 4.75 C4.74375 4.8325 5.3625 4.915 6 5 C6.45375 4.360625 6.9075 3.72125 7.375 3.0625 C9 1 9 1 11 0 C10.6875 2.875 10.6875 2.875 10 6 C6.1496895 8.56687367 4.41430237 7.83288724 0 7 C-1.04449911 3.86650268 -0.93423645 3.01031744 0 0 Z " fill="#F7B27D" transform="translate(78,70)"/>
<path d="M0 0 C1.125 1.75 1.125 1.75 2 4 C1.125 6.25 1.125 6.25 0 8 C-5.625 8.25 -5.625 8.25 -9 6 C-8.67 5.01 -8.34 4.02 -8 3 C-6.515 3.99 -6.515 3.99 -5 5 C-2.84725052 4.69159401 -2.84725052 4.69159401 -1 4 C-0.67 2.68 -0.34 1.36 0 0 Z " fill="#F6B27E" transform="translate(30,70)"/>
</svg>
