<?xml version="1.0" encoding="UTF-8"?>
<svg version="1.1" xmlns="http://www.w3.org/2000/svg" width="100" height="100">
<path d="M0 0 C0.56203125 0.41765625 1.1240625 0.8353125 1.703125 1.265625 C2.32703125 1.72453125 2.9509375 2.1834375 3.59375 2.65625 C9.39581416 7.28814996 13.61310272 12.75658265 14.703125 20.265625 C15.49912706 31.1862147 14.61858383 38.07444662 7.578125 46.515625 C1.01852364 53.40320643 -5.31170369 55.71594919 -14.71875 56.3203125 C-18.22130607 56.24601586 -20.97153207 55.32973474 -24.296875 54.265625 C-27.02120861 54.24260243 -27.02120861 54.24260243 -29.296875 55.265625 C-31.12025253 57.2224538 -31.12025253 57.2224538 -32.296875 59.265625 C-36.16819528 58.69209607 -38.37860296 56.77858148 -41.296875 54.265625 C-39.43412125 49.47568678 -39.43412125 49.47568678 -38.08203125 47.40625 C-37.02159988 45.21921772 -37.02159988 45.21921772 -38.16015625 42.828125 C-38.63839844 41.9825 -39.11664063 41.136875 -39.609375 40.265625 C-43.64918339 33.00503786 -44.68981141 25.75777428 -42.61328125 17.5703125 C-39.31038838 8.60727541 -33.89931084 2.47977373 -25.296875 -1.734375 C-17.8146706 -4.29923546 -6.80503694 -4.20137063 0 0 Z M-35.69140625 12.97265625 C-39.61520686 19.33670034 -39.11024235 27.07827316 -38.296875 34.265625 C-37.27134111 37.3731695 -36.09959607 39.50520836 -34.296875 42.265625 C-28.356875 41.770625 -28.356875 41.770625 -22.296875 41.265625 C-21.306875 44.895625 -20.316875 48.525625 -19.296875 52.265625 C-15.666875 52.265625 -12.036875 52.265625 -8.296875 52.265625 C-7.636875 48.305625 -6.976875 44.345625 -6.296875 40.265625 C-2.336875 40.925625 1.623125 41.585625 5.703125 42.265625 C10.11516243 34.76516137 12.00431817 28.98843845 10.703125 20.265625 C9.75849467 17.27094586 8.46563595 14.85413118 6.703125 12.265625 C6.001875 11.21375 5.300625 10.161875 4.578125 9.078125 C0.46039982 4.49590033 -5.08320829 1.73290713 -11.14453125 0.8515625 C-21.68419129 0.53261818 -29.12156418 4.93058067 -35.69140625 12.97265625 Z " fill="#F6A96A" transform="translate(80.296875,6.734375)"/>
<path d="M0 0 C4.98012761 1.50912958 8.24259942 4.55661849 12 8 C10.68985664 10.77430883 9.23157227 13.19243914 7.390625 15.64453125 C6.88273437 16.32193359 6.37484375 16.99933594 5.8515625 17.69726562 C5.32304688 18.39529297 4.79453125 19.09332031 4.25 19.8125 C3.73695312 20.49892578 3.22390625 21.18535156 2.6953125 21.89257812 C0.12363173 25.30748589 -2.49543139 28.68463385 -5.19921875 31.99609375 C-5.66416748 32.56900146 -6.12911621 33.14190918 -6.6081543 33.73217773 C-8 35 -8 35 -11.0625 35.25 C-14.72221223 33.69267565 -16.64263639 32.21458674 -19 29 C-19.13292492 22.65758232 -14.98395585 18.58863536 -11.1875 13.9375 C-10.55779297 13.14794922 -9.92808594 12.35839844 -9.27929688 11.54492188 C-7.52975992 9.35478799 -5.76676801 7.17623811 -4 5 C-2.66588836 3.33395628 -1.33210538 1.66764829 0 0 Z " fill="#F49A50" transform="translate(35,61)"/>
<path d="M0 0 C4.1619338 2.41863323 7.24551324 5.48260652 9 10 C10.00333201 17.29792018 9.33561712 22.83707896 5.19140625 28.96484375 C3.64773624 31.34799839 3.64773624 31.34799839 3 36 C-1.95 36 -6.9 36 -12 36 C-12.68359375 34.37239583 -13.3671875 32.74479167 -14.05078125 31.1171875 C-15.0265532 28.85131068 -15.0265532 28.85131068 -16.57421875 26.2265625 C-19.1511304 20.39497613 -18.74846296 14.24412151 -18 8 C-14.79769539 0.71856929 -7.32939875 -1.4313304 0 0 Z M-13 12 C-15.45810157 15.68715235 -15.92940636 17.55260093 -16 22 C-14.50669445 26.26294062 -12.92413345 30.73896433 -9.0390625 33.28515625 C-5.57684642 34.49892166 -3.47734016 34.09810742 0 33 C2.12689553 30.55574048 3.56674584 27.89334829 5 25 C5.37511719 24.25363281 5.75023438 23.50726563 6.13671875 22.73828125 C6.42160156 22.16464844 6.70648438 21.59101562 7 21 C6.67 20.67 6.34 20.34 6 20 C5.63239269 17.67182036 5.29758419 15.3381615 5 13 C3.6078125 13.309375 3.6078125 13.309375 2.1875 13.625 C-2.99810252 14.40390737 -7.94034346 13.10708579 -13 12 Z " fill="#F5A05B" transform="translate(71,11)"/>
<path d="M0 0 C1.3271261 3.9813783 1.06915913 7.85045227 1 12 C4.63 12 8.26 12 12 12 C12 12.33 12 12.66 12 13 C11.44538086 12.97381592 10.89076172 12.94763184 10.31933594 12.9206543 C7.79651431 12.81645997 5.27414511 12.75161109 2.75 12.6875 C1.87730469 12.64560547 1.00460938 12.60371094 0.10546875 12.56054688 C-2.36035094 12.51348925 -4.57820612 12.52673084 -7 13 C-9.65469194 15.32141884 -9.65469194 15.32141884 -11 18 C-14.87132028 17.42647107 -17.08172796 15.51295648 -20 13 C-18.92598892 10.08482708 -18.22189824 8.22189824 -16 6 C-15.896875 5.34 -15.79375 4.68 -15.6875 4 C-15 2 -15 2 -12.8125 0.8125 C-8.33756834 -0.48025804 -4.51718832 -1.56364211 0 0 Z " fill="#F49C53" transform="translate(59,48)"/>
<path d="M0 0 C0.33 0 0.66 0 1 0 C0.9175 0.825 0.835 1.65 0.75 2.5 C1.03477217 6.48681042 2.20712057 8.82942435 4.125 12.265625 C5 14 5 14 5 16 C10.87054901 17.32715048 10.87054901 17.32715048 16.3125 15.5625 C18.17016837 12.74159617 19.66841514 9.87495857 21.0703125 6.8046875 C22 5 22 5 24 3 C25 6 25 6 24.0390625 8.0859375 C23.57242188 8.84132813 23.10578125 9.59671875 22.625 10.375 C20.46525923 13.88608696 19.85361652 15.7319174 19 20 C14.05 20 9.1 20 4 20 C3.29038253 18.3104346 2.58126789 16.62065582 1.875 14.9296875 C0.94136666 12.77022282 0.94136666 12.77022282 -0.8125 10 C-2.38411434 6.02960587 -1.48361225 3.90424276 0 0 Z " fill="#F8C6A1" transform="translate(55,27)"/>
<path d="M0 0 C1.67542976 0.28604898 3.34385343 0.61781233 5 1 C5 3.64 5 6.28 5 9 C3.02 9 1.04 9 -1 9 C-0.814375 8.236875 -0.62875 7.47375 -0.4375 6.6875 C0.22819173 3.91032625 0.22819173 3.91032625 -1 1 C-0.67 0.67 -0.34 0.34 0 0 Z " fill="#F6B179" transform="translate(64,48)"/>
<path d="M0 0 C2.475 0.99 2.475 0.99 5 2 C4.41734375 2.10183594 3.8346875 2.20367187 3.234375 2.30859375 C0.62780725 3.11517153 -0.73535414 4.24157009 -2.75 6.0625 C-3.36359375 6.61035156 -3.9771875 7.15820312 -4.609375 7.72265625 C-5.06828125 8.14417969 -5.5271875 8.56570312 -6 9 C-4.38617243 5.59787701 -2.41396234 2.89675481 0 0 Z " fill="#F7B581" transform="translate(35,61)"/>
<path d="M0 0 C2.475 0.495 2.475 0.495 5 1 C5 1.66 5 2.32 5 3 C6.32 3.33 7.64 3.66 9 4 C6.03 4 3.06 4 0 4 C0 2.68 0 1.36 0 0 Z " fill="#F7BC8F" transform="translate(59,43)"/>
</svg>
