<?xml version="1.0" encoding="UTF-8"?>
<svg version="1.1" xmlns="http://www.w3.org/2000/svg" width="100" height="100">
<path d="M0 0 C1.15790039 -0.00315216 2.31580078 -0.00630432 3.50878906 -0.009552 C4.76916992 -0.00752777 6.02955078 -0.00550354 7.328125 -0.00341797 C8.61170898 -0.00437469 9.89529297 -0.00533142 11.21777344 -0.00631714 C13.93816324 -0.00779378 16.65852025 -0.00564066 19.37890625 -0.00097656 C22.87297169 0.00472073 26.36696033 0.00144154 29.86102295 -0.00454903 C33.18339653 -0.00902301 36.50574923 -0.00589432 39.828125 -0.00341797 C41.08850586 -0.0054422 42.34888672 -0.00746643 43.64746094 -0.009552 C44.80536133 -0.00639984 45.96326172 -0.00324768 47.15625 0 C48.18137695 0.00079559 49.20650391 0.00159119 50.26269531 0.00241089 C52.578125 0.12939453 52.578125 0.12939453 53.578125 1.12939453 C53.67712061 2.93448826 53.70611651 4.74346381 53.70751953 6.55126953 C53.71067169 7.70916992 53.71382385 8.86707031 53.71707153 10.06005859 C53.7150473 11.32043945 53.71302307 12.58082031 53.7109375 13.87939453 C53.71189423 15.16297852 53.71285095 16.4465625 53.71383667 17.76904297 C53.71531331 20.48943277 53.71316019 23.20978978 53.70849609 25.93017578 C53.70279881 29.42424122 53.70607799 32.91822986 53.71206856 36.41229248 C53.71654254 39.73466606 53.71341385 43.05701877 53.7109375 46.37939453 C53.71296173 47.63977539 53.71498596 48.90015625 53.71707153 50.19873047 C53.71234329 51.93558105 53.71234329 51.93558105 53.70751953 53.70751953 C53.70672394 54.73264648 53.70592834 55.75777344 53.70510864 56.81396484 C53.578125 59.12939453 53.578125 59.12939453 52.578125 60.12939453 C50.77303127 60.22839014 48.96405572 60.25738604 47.15625 60.25878906 C45.99834961 60.26194122 44.84044922 60.26509338 43.64746094 60.26834106 C41.75688965 60.26530472 41.75688965 60.26530472 39.828125 60.26220703 C38.54454102 60.26316376 37.26095703 60.26412048 35.93847656 60.2651062 C33.21808676 60.26658284 30.49772975 60.26442972 27.77734375 60.25976562 C24.28327831 60.25406834 20.78928967 60.25734753 17.29522705 60.26333809 C13.97285347 60.26781208 10.65050077 60.26468338 7.328125 60.26220703 C6.06774414 60.26423126 4.80736328 60.26625549 3.50878906 60.26834106 C2.35088867 60.2651889 1.19298828 60.26203674 0 60.25878906 C-1.02512695 60.25799347 -2.05025391 60.25719788 -3.10644531 60.25637817 C-5.421875 60.12939453 -5.421875 60.12939453 -6.421875 59.12939453 C-6.52087061 57.3243008 -6.54986651 55.51532525 -6.55126953 53.70751953 C-6.55442169 52.54961914 -6.55757385 51.39171875 -6.56082153 50.19873047 C-6.5587973 48.93834961 -6.55677307 47.67796875 -6.5546875 46.37939453 C-6.55612259 44.45401855 -6.55612259 44.45401855 -6.55758667 42.48974609 C-6.55906331 39.7693563 -6.55691019 37.04899928 -6.55224609 34.32861328 C-6.54654881 30.83454784 -6.54982799 27.3405592 -6.55581856 23.84649658 C-6.56029254 20.524123 -6.55716385 17.2017703 -6.5546875 13.87939453 C-6.55671173 12.61901367 -6.55873596 11.35863281 -6.56082153 10.06005859 C-6.55766937 8.9021582 -6.55451721 7.74425781 -6.55126953 6.55126953 C-6.55007614 5.0135791 -6.55007614 5.0135791 -6.54885864 3.44482422 C-6.30718569 -0.96185929 -3.84659404 0.00298531 0 0 Z M14.578125 11.12939453 C14.248125 12.11939453 13.918125 13.10939453 13.578125 14.12939453 C14.898125 15.11939453 16.218125 16.10939453 17.578125 17.12939453 C16.85625 16.90251953 16.134375 16.67564453 15.390625 16.44189453 C11.80181032 16.04313734 10.45006096 17.05521856 7.578125 19.12939453 C6.16235023 20.31363779 6.16235023 20.31363779 6.515625 23.69189453 C6.53625 24.82626953 6.556875 25.96064453 6.578125 27.12939453 C9.70009978 25.82043733 9.70009978 25.82043733 11.578125 23.12939453 C11.8875 24.07814453 12.196875 25.02689453 12.515625 26.00439453 C13.45207242 28.99019861 13.45207242 28.99019861 14.578125 31.12939453 C13.588125 31.12939453 12.598125 31.12939453 11.578125 31.12939453 C11.248125 30.13939453 10.918125 29.14939453 10.578125 28.12939453 C7.46027387 28.77584114 7.46027387 28.77584114 6.578125 31.12939453 C6.09229889 36.18381152 6.09229889 36.18381152 8.328125 40.56689453 C10.66915066 42.5096584 10.66915066 42.5096584 14.578125 42.12939453 C14.578125 42.78939453 14.578125 43.44939453 14.578125 44.12939453 C13.588125 44.62439453 13.588125 44.62439453 12.578125 45.12939453 C14.228125 46.77939453 15.878125 48.42939453 17.578125 50.12939453 C19.063125 49.63439453 19.063125 49.63439453 20.578125 49.12939453 C20.578125 45.49939453 20.578125 41.86939453 20.578125 38.12939453 C16.618125 38.62439453 16.618125 38.62439453 12.578125 39.12939453 C12.578125 38.46939453 12.578125 37.80939453 12.578125 37.12939453 C14.2796875 36.91283203 14.2796875 36.91283203 16.015625 36.69189453 C19.38589701 36.51767975 19.38589701 36.51767975 20.578125 35.12939453 C20.66538723 33.34868207 20.68511541 31.56456313 20.67578125 29.78173828 C20.67255859 28.70214844 20.66933594 27.62255859 20.66601562 26.51025391 C20.65763672 25.37394531 20.64925781 24.23763672 20.640625 23.06689453 C20.63611328 21.92671875 20.63160156 20.78654297 20.62695312 19.61181641 C20.61512247 16.78429102 20.5986391 13.95686813 20.578125 11.12939453 C18.598125 11.12939453 16.618125 11.12939453 14.578125 11.12939453 Z M26.578125 11.12939453 C26.578125 14.42939453 26.578125 17.72939453 26.578125 21.12939453 C29.218125 20.79939453 31.858125 20.46939453 34.578125 20.12939453 C34.578125 20.78939453 34.578125 21.44939453 34.578125 22.12939453 C32.8765625 22.34595703 32.8765625 22.34595703 31.140625 22.56689453 C27.77035299 22.74110931 27.77035299 22.74110931 26.578125 24.12939453 C26.49074855 25.98309064 26.47114347 27.84006994 26.48046875 29.69580078 C26.48369141 30.82050781 26.48691406 31.94521484 26.49023438 33.10400391 C26.49861328 34.28800781 26.50699219 35.47201172 26.515625 36.69189453 C26.52013672 37.87976563 26.52464844 39.06763672 26.52929688 40.29150391 C26.54112825 43.23751679 26.55761213 46.18343134 26.578125 49.12939453 C30.45610162 49.56325545 30.45610162 49.56325545 32.328125 47.62939453 C32.740625 47.13439453 33.153125 46.63939453 33.578125 46.12939453 C32.918125 45.79939453 32.258125 45.46939453 31.578125 45.12939453 C31.578125 44.46939453 31.578125 43.80939453 31.578125 43.12939453 C32.9703125 43.00564453 32.9703125 43.00564453 34.390625 42.87939453 C37.56823886 42.39211337 37.56823886 42.39211337 39.453125 40.50439453 C40.97178355 37.2983376 40.78002194 34.62894142 40.578125 31.12939453 C36.71164228 32.17037065 33.08351057 33.16637861 29.578125 35.12939453 C30.238125 34.34564453 30.898125 33.56189453 31.578125 32.75439453 C33.78013941 30.41426641 33.78013941 30.41426641 33.578125 28.12939453 C34.238125 28.12939453 34.898125 28.12939453 35.578125 28.12939453 C35.578125 28.78939453 35.578125 29.44939453 35.578125 30.12939453 C38.2686778 28.90931509 38.2686778 28.90931509 40.578125 27.12939453 C40.97214956 23.5831735 40.96348013 21.73054853 39.015625 18.69189453 C36.53226523 16.75925566 36.53226523 16.75925566 32.828125 17.37939453 C31.219375 17.75064453 31.219375 17.75064453 29.578125 18.12939453 C30.578125 16.12939453 30.578125 16.12939453 33.578125 15.12939453 C33.248125 13.80939453 32.918125 12.48939453 32.578125 11.12939453 C30.598125 11.12939453 28.618125 11.12939453 26.578125 11.12939453 Z " fill="#F49544" transform="translate(26.421875,18.87060546875)"/>
<path d="M0 0 C1.98 0.495 1.98 0.495 4 1 C4 4.63 4 8.26 4 12 C2.68 12.33 1.36 12.66 0 13 C-1 12 -1 12 -1.1328125 9.53125 C-1.13023438 8.5309375 -1.12765625 7.530625 -1.125 6.5 C-1.12757812 5.4996875 -1.13015625 4.499375 -1.1328125 3.46875 C-1 1 -1 1 0 0 Z " fill="#F49B4F" transform="translate(30,84)"/>
<path d="M0 0 C1.51400391 0.01740234 1.51400391 0.01740234 3.05859375 0.03515625 C4.07050781 0.04417969 5.08242187 0.05320312 6.125 0.0625 C7.29869141 0.07990234 7.29869141 0.07990234 8.49609375 0.09765625 C9.05859375 2.03515625 9.05859375 2.03515625 9.49609375 4.09765625 C8.49609375 5.09765625 8.49609375 5.09765625 5.9921875 5.1953125 C4.47818359 5.17791016 4.47818359 5.17791016 2.93359375 5.16015625 C1.92167969 5.15113281 0.90976563 5.14210938 -0.1328125 5.1328125 C-0.91527344 5.12121094 -1.69773437 5.10960937 -2.50390625 5.09765625 C-3.06640625 3.16015625 -3.06640625 3.16015625 -3.50390625 1.09765625 C-2.50390625 0.09765625 -2.50390625 0.09765625 0 0 Z " fill="#F49B4F" transform="translate(88.50390625,27.90234375)"/>
<path d="M0 0 C3.96 0 7.92 0 12 0 C12.33 1.32 12.66 2.64 13 4 C10.63386544 5.18306728 9.13219264 5.13354608 6.5 5.125 C5.7059375 5.12757812 4.911875 5.13015625 4.09375 5.1328125 C2 5 2 5 0 4 C0 2.68 0 1.36 0 0 Z " fill="#F59D53" transform="translate(85,65)"/>
<path d="M0 0 C1.98 0.495 1.98 0.495 4 1 C4 4.63 4 8.26 4 12 C2.68 12.33 1.36 12.66 0 13 C-1.25069801 10.49860398 -1.13302467 8.72607309 -1.125 5.9375 C-1.12757812 5.03902344 -1.13015625 4.14054688 -1.1328125 3.21484375 C-1 1 -1 1 0 0 Z " fill="#F59C51" transform="translate(30,1)"/>
<path d="M0 0 C0.99 0 1.98 0 3 0 C4.18306728 2.36613456 4.13354608 3.86780736 4.125 6.5 C4.12757812 7.2940625 4.13015625 8.088125 4.1328125 8.90625 C4 11 4 11 3 13 C1.68 12.67 0.36 12.34 -1 12 C-1.02687279 10.18757948 -1.04633715 8.37504767 -1.0625 6.5625 C-1.07410156 5.55316406 -1.08570312 4.54382813 -1.09765625 3.50390625 C-1 1 -1 1 0 0 Z " fill="#F59C51" transform="translate(67,84)"/>
<path d="M0 0 C1.98 0.495 1.98 0.495 4 1 C4 4.63 4 8.26 4 12 C2.68 12.33 1.36 12.66 0 13 C-1.18306728 10.63386544 -1.13354608 9.13219264 -1.125 6.5 C-1.12757812 5.7059375 -1.13015625 4.911875 -1.1328125 4.09375 C-1 2 -1 2 0 0 Z " fill="#F59D53" transform="translate(48,84)"/>
<path d="M0 0 C1.19109375 -0.00386719 1.19109375 -0.00386719 2.40625 -0.0078125 C4.5 0.125 4.5 0.125 6.5 1.125 C6.17 2.445 5.84 3.765 5.5 5.125 C1.87 5.125 -1.76 5.125 -5.5 5.125 C-5.83 3.805 -6.16 2.485 -6.5 1.125 C-4.13386544 -0.05806728 -2.63219264 -0.00854608 0 0 Z " fill="#F59D53" transform="translate(91.5,45.875)"/>
<path d="M0 0 C1.37478516 0.01740234 1.37478516 0.01740234 2.77734375 0.03515625 C3.69644531 0.04417969 4.61554687 0.05320312 5.5625 0.0625 C6.27277344 0.07410156 6.98304687 0.08570312 7.71484375 0.09765625 C8.37484375 1.41765625 9.03484375 2.73765625 9.71484375 4.09765625 C8.71484375 5.09765625 8.71484375 5.09765625 6.2109375 5.1953125 C4.69693359 5.17791016 4.69693359 5.17791016 3.15234375 5.16015625 C2.14042969 5.15113281 1.12851563 5.14210938 0.0859375 5.1328125 C-0.69652344 5.12121094 -1.47898438 5.10960937 -2.28515625 5.09765625 C-2.84765625 3.16015625 -2.84765625 3.16015625 -3.28515625 1.09765625 C-2.28515625 0.09765625 -2.28515625 0.09765625 0 0 Z " fill="#F49B50" transform="translate(5.28515625,27.90234375)"/>
<path d="M0 0 C3.63 0 7.26 0 11 0 C11 1.32 11 2.64 11 4 C10 5 10 5 8.00390625 5.1328125 C7.19824219 5.13023438 6.39257812 5.12765625 5.5625 5.125 C4.75941406 5.12757812 3.95632812 5.13015625 3.12890625 5.1328125 C1 5 1 5 -1 4 C-0.67 2.68 -0.34 1.36 0 0 Z " fill="#F59D52" transform="translate(3,65)"/>
<path d="M0 0 C1.22589844 0.01353516 1.22589844 0.01353516 2.4765625 0.02734375 C3.41628906 0.04474609 3.41628906 0.04474609 4.375 0.0625 C5.035 1.3825 5.695 2.7025 6.375 4.0625 C5.375 5.0625 5.375 5.0625 2.87109375 5.16015625 C1.35708984 5.14275391 1.35708984 5.14275391 -0.1875 5.125 C-1.19941406 5.11597656 -2.21132812 5.10695313 -3.25390625 5.09765625 C-4.03636719 5.08605469 -4.81882812 5.07445312 -5.625 5.0625 C-5.955 3.7425 -6.285 2.4225 -6.625 1.0625 C-4.21954362 -0.14022819 -2.67503047 -0.03821472 0 0 Z " fill="#F59E54" transform="translate(8.625,45.9375)"/>
<path d="M0 0 C0.99 0 1.98 0 3 0 C4.20272819 2.40545638 4.10071472 3.94996953 4.0625 6.625 C4.05347656 7.44226563 4.04445313 8.25953125 4.03515625 9.1015625 C4.02355469 9.72804688 4.01195313 10.35453125 4 11 C2.02 11.99 2.02 11.99 0 13 C-1 12 -1 12 -1.1328125 9.53125 C-1.13023438 8.5309375 -1.12765625 7.530625 -1.125 6.5 C-1.12757812 5.4996875 -1.13015625 4.499375 -1.1328125 3.46875 C-1 1 -1 1 0 0 Z " fill="#F59D53" transform="translate(67,1)"/>
<path d="M0 0 C1.98 0.495 1.98 0.495 4 1 C4 4.63 4 8.26 4 12 C2.68 12 1.36 12 0 12 C-1 11 -1 11 -1.1328125 9.00390625 C-1.13023438 8.19824219 -1.12765625 7.39257812 -1.125 6.5625 C-1.12757812 5.75941406 -1.13015625 4.95632812 -1.1328125 4.12890625 C-1 2 -1 2 0 0 Z " fill="#F59D54" transform="translate(48,1)"/>
<path d="M0 0 C0.66 2.97 1.32 5.94 2 9 C1.01 9 0.02 9 -1 9 C-3.1875 6.5 -3.1875 6.5 -5 4 C-1.125 0 -1.125 0 0 0 Z " fill="#F5A45F" transform="translate(39,41)"/>
</svg>
