<?xml version="1.0" encoding="UTF-8"?>
<svg version="1.1" xmlns="http://www.w3.org/2000/svg" width="100" height="100">
<path d="M0 0 C3.1390873 2.28166224 5.82753045 4.94297597 8.5625 7.6875 C9.6752832 8.7693457 9.6752832 8.7693457 10.81054688 9.87304688 C12.24689845 11.27358559 13.67338352 12.68433211 15.08862305 14.10620117 C16.24892129 15.25582864 17.43269539 16.38317886 18.65551758 17.46606445 C21.95219861 20.41760352 21.95219861 20.41760352 22.19140625 23.33203125 C21.98386719 24.15058594 21.77632813 24.96914063 21.5625 25.8125 C21.33046875 26.76382812 21.0984375 27.71515625 20.859375 28.6953125 C20.57578125 29.78585938 20.2921875 30.87640625 20 32 C19.7283435 33.329511 19.46303066 34.66032947 19.203125 35.9921875 C17.50386239 44.26231883 15.4584365 50.24859234 9 56 C7.82814823 57.16145841 6.66143506 58.32812508 5.5 59.5 C4.91605469 60.07363281 4.33210938 60.64726563 3.73046875 61.23828125 C2.00548519 62.99441576 0.40817536 64.81364395 -1.1875 66.6875 C-4.77794279 70.86149106 -8.66476144 74.6936495 -12.57885742 78.55932617 C-17.3795586 83.32364117 -21.80846394 88.35726534 -26.125 93.5625 C-28 95 -28 95 -30.16015625 95.00390625 C-34.45252469 93.48652153 -37.10601733 90.53001167 -40.3125 87.375 C-41.65935508 86.08249795 -43.00700193 84.79082043 -44.35546875 83.5 C-44.99274902 82.88511719 -45.6300293 82.27023438 -46.28662109 81.63671875 C-48.1846952 79.82356845 -50.13149283 78.08250079 -52.125 76.375 C-55.73774468 73.26358333 -59.2460499 70.04520155 -62.75 66.8125 C-63.30574707 66.30058105 -63.86149414 65.78866211 -64.43408203 65.26123047 C-65.48617644 64.28813074 -66.53377833 63.31014449 -67.57617188 62.32666016 C-68.84019701 61.14889737 -70.14417062 60.0143371 -71.453125 58.88671875 C-73 57 -73 57 -72.9453125 54.98828125 C-71.85079451 52.68617523 -70.58983276 51.075354 -68.875 49.1875 C-68.24335937 48.49011719 -67.61171875 47.79273438 -66.9609375 47.07421875 C-64.60479434 44.58196373 -62.18084113 42.16879084 -59.734375 39.765625 C-57.98797581 37.98775916 -56.36780761 36.14514605 -54.75 34.25 C-51.37683226 30.32983209 -47.74024074 26.70646446 -44.05883789 23.08056641 C-40.76008814 19.81313571 -37.67696534 16.43791492 -34.73046875 12.8515625 C-29.1369765 6.86665206 -24.34817233 4.76173802 -16.5 2.6875 C-15.57574219 2.42388672 -14.65148438 2.16027344 -13.69921875 1.88867188 C-3.76325739 -0.8476265 -3.76325739 -0.8476265 0 0 Z M-4.9375 17.0625 C-6.45334601 19.82668977 -6.32954432 21.90228335 -6 25 C-4.05541686 27.3721969 -4.05541686 27.3721969 -0.5 27.3125 C0.655 27.209375 1.81 27.10625 3 27 C5.56687367 23.1496895 4.83288724 21.41430237 4 17 C-0.59079703 15.84850984 -0.59079703 15.84850984 -4.9375 17.0625 Z M-39.4375 39.3125 C-42.03357586 43.77775049 -42.04981374 46.73470001 -41.6875 51.8125 C-41.60886719 53.01519531 -41.53023437 54.21789062 -41.44921875 55.45703125 C-41.01560672 58.87691049 -40.20771606 61.78106699 -39 65 C-36.12442297 65.08138426 -33.25117738 65.14067851 -30.375 65.1875 C-29.16263672 65.22520508 -29.16263672 65.22520508 -27.92578125 65.26367188 C-22.84268098 65.3256609 -19.40185734 64.83509456 -15 62 C-12.55814182 59.08552411 -11.98619405 57.6902975 -12.0625 53.875 C-12.80345922 51.00044105 -12.80345922 51.00044105 -14.5625 49.125 C-18.14339672 47.47227844 -21.07635835 47.80381792 -25 48 C-25.103125 46.741875 -25.20625 45.48375 -25.3125 44.1875 C-25.63709683 41.77437885 -25.91453708 40.16087138 -27.0625 38 C-31.70108939 35.60588935 -35.78869096 35.85080937 -39.4375 39.3125 Z " fill="#F4974B" transform="translate(76,2)"/>
<path d="M0 0 C3.875 1.75 3.875 1.75 5 4 C5.039992 5.99960012 5.04346799 8.00047242 5 10 C7.64 10 10.28 10 13 10 C13.33 10.66 13.66 11.32 14 12 C10.7 12 7.4 12 4 12 C3 9 3 9 2.5625 6 C2.17143965 2.83264224 2.17143965 2.83264224 0 0 Z " fill="#F7B991" transform="translate(47,39)"/>
</svg>
