<svg version="1.1" id="Layer_1" xmlns="http://www.w3.org/2000/svg" xmlns:xlink="http://www.w3.org/1999/xlink" x="0px" y="0px"
	 width="100%" viewBox="0 0 100 100" enable-background="new 0 0 100 100" xml:space="preserve">
<path fill="#000000" opacity="1.000000" stroke="none" 
	d="
M101.000000,34.000000 
	C101.000000,56.666660 101.000000,78.833321 101.000000,100.999985 
	C67.666687,100.999985 34.333366,100.999985 1.000037,100.999992 
	C1.000025,67.666695 1.000025,34.333385 1.000012,1.000060 
	C34.333298,1.000040 67.666595,1.000040 100.999947,1.000020 
	C101.000000,11.833333 101.000000,22.666666 101.000000,34.000000 
M21.982321,45.043835 
	C21.982321,45.043835 21.909826,45.038406 22.359215,45.795742 
	C46.278980,45.862431 70.198738,45.936859 94.118538,45.949642 
	C94.695717,45.949951 95.273262,45.262913 95.979218,43.980110 
	C95.985977,33.833202 95.924416,23.685509 96.041626,13.539878 
	C96.076241,10.544226 95.461067,8.923043 91.949081,8.946601 
	C68.665115,9.102784 45.380104,9.103120 21.219126,9.322736 
	C21.148245,20.576521 21.060556,31.830288 21.048155,43.084137 
	C21.047409,43.760777 21.647402,44.438084 21.982321,45.043835 
M56.359890,56.737915 
	C50.687000,56.168797 45.022678,55.323254 39.337612,55.147057 
	C36.490650,55.058823 33.304600,55.601280 30.795252,56.883045 
	C23.565138,60.576160 16.560314,64.721260 9.567019,68.857910 
	C8.157922,69.691406 6.220024,71.234177 6.174068,72.509323 
	C5.870488,80.932884 6.017174,89.372665 6.017174,98.651680 
	C11.558132,96.577286 16.367699,94.793243 21.165060,92.976959 
	C29.041023,89.995110 36.573235,85.991318 45.527390,86.900665 
	C50.824009,87.438576 56.274689,87.496635 61.559669,86.906700 
	C74.506973,85.461441 84.824791,79.069427 92.657600,68.740791 
	C95.193184,65.397270 94.401154,61.125721 91.198143,58.719330 
	C88.381989,56.603588 84.464798,57.505310 81.650772,60.755287 
	C80.129715,62.511978 78.556366,64.296539 76.721649,65.694550 
	C71.525711,69.653725 65.852531,72.016830 59.194168,70.033501 
	C59.950478,69.349045 60.940647,69.376610 61.685799,68.962883 
	C63.828747,67.773048 67.469460,66.544868 67.598312,65.075424 
	C67.816475,62.587399 66.417770,59.187378 64.515724,57.521557 
	C62.925922,56.129192 59.643639,56.669300 56.359890,56.737915 
z"/>
<path fill="#F49646" opacity="1.000000" stroke="none" 
	d="
M56.735367,56.545776 
	C59.643639,56.669300 62.925922,56.129192 64.515724,57.521557 
	C66.417770,59.187378 67.816475,62.587399 67.598312,65.075424 
	C67.469460,66.544868 63.828747,67.773048 61.685799,68.962883 
	C60.940647,69.376610 59.950478,69.349045 59.194168,70.033501 
	C65.852531,72.016830 71.525711,69.653725 76.721649,65.694550 
	C78.556366,64.296539 80.129715,62.511978 81.650772,60.755287 
	C84.464798,57.505310 88.381989,56.603588 91.198143,58.719330 
	C94.401154,61.125721 95.193184,65.397270 92.657600,68.740791 
	C84.824791,79.069427 74.506973,85.461441 61.559669,86.906700 
	C56.274689,87.496635 50.824009,87.438576 45.527390,86.900665 
	C36.573235,85.991318 29.041023,89.995110 21.165060,92.976959 
	C16.367699,94.793243 11.558132,96.577286 6.017174,98.651680 
	C6.017174,89.372665 5.870488,80.932884 6.174068,72.509323 
	C6.220024,71.234177 8.157922,69.691406 9.567019,68.857910 
	C16.560314,64.721260 23.565138,60.576160 30.795252,56.883045 
	C33.304600,55.601280 36.490650,55.058823 39.337612,55.147057 
	C45.022678,55.323254 50.687000,56.168797 56.735367,56.545776 
M82.526802,63.975052 
	C72.334023,76.883522 55.077248,75.809235 48.732906,68.443619 
	C50.059616,68.119232 51.143330,67.777954 52.253189,67.597557 
	C55.290730,67.103821 58.330990,66.607689 61.386032,66.246712 
	C63.930714,65.946045 65.888275,64.736938 64.824280,62.163868 
	C64.233154,60.734325 61.973423,59.342167 60.317059,59.137718 
	C56.540283,58.671539 52.552467,59.540161 48.865910,58.797157 
	C41.508667,57.314342 34.629311,57.412296 28.009796,61.426094 
	C22.876928,64.538452 17.494215,67.238297 12.354429,70.340019 
	C10.987056,71.165199 9.215487,72.750145 9.150084,74.062057 
	C8.822473,80.633797 9.000034,87.230713 9.000034,94.613945 
	C15.346550,92.170036 20.871288,89.922768 26.483679,87.921288 
	C30.582550,86.459557 34.739315,84.510216 38.971779,84.210197 
	C47.427807,83.610802 56.074142,84.884346 64.420715,83.752899 
	C75.482361,82.253418 83.665840,75.053848 90.544655,66.645844 
	C91.424850,65.569992 90.486374,63.006237 90.390411,61.131763 
	C88.529953,61.321812 86.639381,61.374416 84.824448,61.772194 
	C84.136124,61.923050 83.622063,62.868996 82.526802,63.975052 
z"/>
<path fill="#F49341" opacity="1.000000" stroke="none" 
	d="
M22.095430,9.154172 
	C45.380104,9.103120 68.665115,9.102784 91.949081,8.946601 
	C95.461067,8.923043 96.076241,10.544226 96.041626,13.539878 
	C95.924416,23.685509 95.985977,33.833202 95.456955,44.464138 
	C70.593071,44.978245 46.251450,45.008327 21.909826,45.038406 
	C21.909826,45.038406 21.982321,45.043835 21.983932,44.602200 
	C22.022171,32.491768 22.058802,20.822969 22.095430,9.154172 
M93.019417,11.971982 
	C93.019417,11.971982 93.023338,12.072679 92.459908,11.441922 
	C91.650665,11.297462 90.841576,11.027816 90.032158,11.026829 
	C69.266838,11.001515 48.501427,10.986853 27.736252,11.046396 
	C26.522177,11.049878 25.309935,11.692755 24.013302,12.967296 
	C24.025177,22.947365 24.037052,32.927437 24.639484,43.486774 
	C25.440239,43.654884 26.240791,43.968697 27.041780,43.969814 
	C47.611786,43.998558 68.181870,44.007767 88.751801,43.960064 
	C89.849525,43.957520 90.946014,43.427517 92.429939,42.994431 
	C92.429939,42.994431 92.844322,42.988808 93.554649,42.512985 
	C93.702766,33.704517 93.900047,24.896318 93.947617,16.087311 
	C93.955017,14.717299 93.278763,13.343598 93.019417,11.971982 
z"/>
<path fill="#F8B57E" opacity="1.000000" stroke="none" 
	d="
M22.134521,45.417076 
	C46.251450,45.008327 70.593071,44.978245 95.392662,44.922318 
	C95.273262,45.262913 94.695717,45.949951 94.118538,45.949642 
	C70.198738,45.936859 46.278980,45.862431 22.134521,45.417076 
z"/>
<path fill="#F9C8A0" opacity="1.000000" stroke="none" 
	d="
M21.657278,9.238454 
	C22.058802,20.822969 22.022171,32.491768 21.976704,44.637821 
	C21.647402,44.438084 21.047409,43.760777 21.048155,43.084137 
	C21.060556,31.830288 21.148245,20.576521 21.657278,9.238454 
z"/>
<path fill="#000000" opacity="1.000000" stroke="none" 
	d="
M82.777687,63.713799 
	C83.622063,62.868996 84.136124,61.923050 84.824448,61.772194 
	C86.639381,61.374416 88.529953,61.321812 90.390411,61.131763 
	C90.486374,63.006237 91.424850,65.569992 90.544655,66.645844 
	C83.665840,75.053848 75.482361,82.253418 64.420715,83.752899 
	C56.074142,84.884346 47.427807,83.610802 38.971779,84.210197 
	C34.739315,84.510216 30.582550,86.459557 26.483679,87.921288 
	C20.871288,89.922768 15.346550,92.170036 9.000034,94.613945 
	C9.000034,87.230713 8.822473,80.633797 9.150084,74.062057 
	C9.215487,72.750145 10.987056,71.165199 12.354429,70.340019 
	C17.494215,67.238297 22.876928,64.538452 28.009796,61.426094 
	C34.629311,57.412296 41.508667,57.314342 48.865910,58.797157 
	C52.552467,59.540161 56.540283,58.671539 60.317059,59.137718 
	C61.973423,59.342167 64.233154,60.734325 64.824280,62.163868 
	C65.888275,64.736938 63.930714,65.946045 61.386032,66.246712 
	C58.330990,66.607689 55.290730,67.103821 52.253189,67.597557 
	C51.143330,67.777954 50.059616,68.119232 48.732906,68.443619 
	C55.077248,75.809235 72.334023,76.883522 82.777687,63.713799 
z"/>
<path fill="#000000" opacity="1.000000" stroke="none" 
	d="
M24.048927,42.907509 
	C24.037052,32.927437 24.025177,22.947365 24.514015,12.485758 
	C47.684265,12.027040 70.353806,12.049859 93.023338,12.072679 
	C93.023338,12.072679 93.019417,11.971982 93.005661,12.442356 
	C92.942711,22.938089 92.893517,32.963448 92.844322,42.988808 
	C92.844322,42.988808 92.429939,42.994431 91.765244,43.006340 
	C68.750000,42.981339 46.399464,42.944424 24.048927,42.907509 
M36.618309,14.000485 
	C26.000534,14.000696 26.000515,14.000696 26.000496,24.822010 
	C26.000488,28.308363 26.143749,31.802135 25.963474,35.279137 
	C25.751057,39.376091 28.197197,40.842579 31.589878,40.941589 
	C38.174862,41.133778 44.769417,40.997818 51.602745,40.997818 
	C46.085297,31.918180 46.743229,23.219309 52.275326,14.000485 
	C47.036785,14.000485 42.308647,14.000485 36.618309,14.000485 
M67.646675,19.153547 
	C70.269798,26.698711 69.604698,33.930077 64.912949,40.999405 
	C71.891273,40.999405 78.206856,40.966114 84.521889,41.010544 
	C89.097816,41.042732 91.075935,38.723381 91.013397,34.279366 
	C90.950096,29.781275 90.813629,25.271671 91.053329,20.785494 
	C91.279114,16.559685 88.217125,14.509937 85.350906,14.226621 
	C78.694519,13.568659 71.928764,14.017104 64.615669,14.017104 
	C65.728622,16.039268 66.414177,17.284878 67.646675,19.153547 
M60.083073,35.715000 
	C65.433777,32.045715 65.268082,29.592468 59.630745,26.198608 
	C58.424244,25.472256 57.598545,24.113371 56.597420,23.045879 
	C56.873669,22.658501 57.149914,22.271122 57.426159,21.883743 
	C59.109612,21.883743 60.793060,21.883743 63.824841,21.883743 
	C61.198090,19.713776 59.573689,18.371851 57.949287,17.029924 
	C56.634338,18.980944 54.611404,20.809494 54.245514,22.924681 
	C53.988098,24.412788 55.812813,26.427048 57.025665,27.953892 
	C58.103104,29.310276 59.618134,30.319057 60.940014,31.481268 
	C60.675175,31.957832 60.410339,32.434395 60.145500,32.910961 
	C58.196999,32.720379 56.248497,32.529793 54.342560,32.343376 
	C54.750195,35.657955 57.871712,37.939667 60.083073,35.715000 
z"/>
<path fill="#F9C395" opacity="1.000000" stroke="none" 
	d="
M92.741623,11.757300 
	C70.353806,12.049859 47.684265,12.027040 24.555784,12.021151 
	C25.309935,11.692755 26.522177,11.049878 27.736252,11.046396 
	C48.501427,10.986853 69.266838,11.001515 90.032158,11.026829 
	C90.841576,11.027816 91.650665,11.297462 92.741623,11.757300 
z"/>
<path fill="#F6A765" opacity="1.000000" stroke="none" 
	d="
M24.344206,43.197144 
	C46.399464,42.944424 68.750000,42.981339 91.571808,43.080654 
	C90.946014,43.427517 89.849525,43.957520 88.751801,43.960064 
	C68.181870,44.007767 47.611786,43.998558 27.041780,43.969814 
	C26.240791,43.968697 25.440239,43.654884 24.344206,43.197144 
z"/>
<path fill="#FACFAB" opacity="1.000000" stroke="none" 
	d="
M93.199486,42.750896 
	C92.893517,32.963448 92.942711,22.938089 92.955276,12.442167 
	C93.278763,13.343598 93.955017,14.717299 93.947617,16.087311 
	C93.900047,24.896318 93.702766,33.704517 93.199486,42.750896 
z"/>
<path fill="#F49341" opacity="1.000000" stroke="none" 
	d="
M37.099407,14.000485 
	C42.308647,14.000485 47.036785,14.000485 52.275326,14.000485 
	C46.743229,23.219309 46.085297,31.918180 51.602745,40.997818 
	C44.769417,40.997818 38.174862,41.133778 31.589878,40.941589 
	C28.197197,40.842579 25.751057,39.376091 25.963474,35.279137 
	C26.143749,31.802135 26.000488,28.308363 26.000496,24.822010 
	C26.000515,14.000696 26.000534,14.000696 37.099407,14.000485 
z"/>
<path fill="#F49341" opacity="1.000000" stroke="none" 
	d="
M67.373207,18.842018 
	C66.414177,17.284878 65.728622,16.039268 64.615669,14.017104 
	C71.928764,14.017104 78.694519,13.568659 85.350906,14.226621 
	C88.217125,14.509937 91.279114,16.559685 91.053329,20.785494 
	C90.813629,25.271671 90.950096,29.781275 91.013397,34.279366 
	C91.075935,38.723381 89.097816,41.042732 84.521889,41.010544 
	C78.206856,40.966114 71.891273,40.999405 64.912949,40.999405 
	C69.604698,33.930077 70.269798,26.698711 67.373207,18.842018 
z"/>
<path fill="#F49748" opacity="1.000000" stroke="none" 
	d="
M60.044708,36.098412 
	C57.871712,37.939667 54.750195,35.657955 54.342560,32.343376 
	C56.248497,32.529793 58.196999,32.720379 60.145500,32.910961 
	C60.410339,32.434395 60.675175,31.957832 60.940014,31.481268 
	C59.618134,30.319057 58.103104,29.310276 57.025665,27.953892 
	C55.812813,26.427048 53.988098,24.412788 54.245514,22.924681 
	C54.611404,20.809494 56.634338,18.980944 57.949287,17.029926 
	C59.573689,18.371851 61.198090,19.713776 63.824841,21.883743 
	C60.793060,21.883743 59.109612,21.883743 57.426159,21.883743 
	C57.149914,22.271122 56.873669,22.658501 56.597420,23.045879 
	C57.598545,24.113371 58.424244,25.472256 59.630745,26.198608 
	C65.268082,29.592468 65.433777,32.045715 60.044708,36.098412 
z"/>
</svg>