<svg version="1.1" id="Layer_1" xmlns="http://www.w3.org/2000/svg" xmlns:xlink="http://www.w3.org/1999/xlink" x="0px" y="0px"
	 width="100%" viewBox="0 0 100 100" enable-background="new 0 0 100 100" xml:space="preserve">
<path fill="#000000" opacity="1.000000" stroke="none" 
	d="
M101.000000,36.000000 
	C101.000000,57.999992 101.000000,79.499985 101.000000,100.999985 
	C67.666679,100.999985 34.333366,100.999985 1.000037,100.999992 
	C1.000025,67.666695 1.000025,34.333385 1.000012,1.000059 
	C34.333298,1.000039 67.666595,1.000039 100.999947,1.000020 
	C101.000000,12.500000 101.000000,24.000000 101.000000,36.000000 
M38.678219,80.819298 
	C41.630093,73.836731 39.742592,67.678276 33.603668,64.262291 
	C33.463276,64.337418 33.201733,64.409737 33.199917,64.488083 
	C33.119129,67.971222 33.479965,71.533180 32.848614,74.910088 
	C32.449097,77.046982 30.924555,79.291718 29.274771,80.798492 
	C27.068844,82.813225 24.407377,84.540382 21.645622,85.663185 
	C19.713041,86.448875 17.285297,86.016602 15.078704,86.128304 
	C15.376658,84.269272 15.406661,82.307289 16.067387,80.587639 
	C16.503092,79.453651 17.856535,78.678276 18.781240,77.725052 
	C21.604509,74.814690 21.960556,68.111687 19.271687,64.091545 
	C15.504545,67.899094 11.655502,71.533752 8.110620,75.444138 
	C4.559516,79.361389 3.993891,86.087097 6.527312,90.022659 
	C10.269170,95.835480 15.941508,98.185760 22.013601,96.000130 
	C29.330338,93.366486 33.517323,87.093369 38.678219,80.819298 
M93.065041,26.425396 
	C98.345047,20.318855 98.508102,16.064718 93.668137,9.319371 
	C90.251053,4.557051 81.004684,2.761788 76.769882,6.253483 
	C72.262032,9.970317 68.631485,14.751166 64.679504,19.001181 
	C70.196304,21.302860 74.967972,20.466770 79.485260,15.984272 
	C81.666451,13.819870 84.019814,12.846141 86.343224,15.048646 
	C88.638313,17.224316 86.959511,19.224585 85.349533,21.268349 
	C83.498817,23.617701 82.464958,26.657343 80.455498,28.820457 
	C78.762833,30.642546 76.330238,32.301579 73.956070,32.834961 
	C70.914993,33.518181 67.604202,33.000885 63.830849,33.000885 
	C70.725449,41.422535 76.834175,41.053871 81.863892,37.404961 
	C85.856926,34.508118 89.032310,30.484221 93.065041,26.425396 
M30.777451,76.676949 
	C30.850290,66.188087 31.112181,55.693810 30.812071,45.215630 
	C30.761353,43.444801 28.512709,40.574162 26.887688,40.263863 
	C23.907614,39.694824 22.947720,42.292877 22.970743,45.178036 
	C23.047852,54.841343 22.897392,64.507874 23.106321,74.167282 
	C23.139341,75.693962 24.241383,77.916275 25.468311,78.487785 
	C26.600559,79.015221 28.564886,77.756363 30.777451,76.676949 
M76.636543,29.804810 
	C77.236023,28.165899 78.777039,25.975107 78.215332,25.016819 
	C77.362839,23.562412 75.073227,22.183348 73.353584,22.132101 
	C64.076744,21.855640 54.783115,22.159842 45.504639,21.912527 
	C42.110451,21.822054 40.161648,23.365713 40.270733,26.209497 
	C40.365486,28.679581 42.254330,30.182352 45.446625,30.096478 
	C55.553493,29.824594 65.671890,29.981298 76.636543,29.804810 
M26.401960,30.034943 
	C25.345913,29.449551 24.289865,28.864159 23.292347,28.311209 
	C11.976384,39.137653 10.752835,49.244511 20.998203,54.963596 
	C20.998203,51.079124 21.139784,47.688217 20.958380,44.314674 
	C20.777018,40.941956 22.615273,39.247108 25.364998,38.005424 
	C27.303680,37.129978 29.175842,36.107216 32.036449,34.667797 
	C29.781866,32.785259 28.378500,31.613472 26.401960,30.034943 
M29.476425,23.973907 
	C31.265213,26.020163 33.054001,28.066420 35.080990,30.385160 
	C37.601673,26.824810 39.241001,22.277533 42.382156,20.676188 
	C45.784641,18.941612 50.587337,19.953651 55.364319,19.741911 
	C52.831593,15.431794 49.529816,13.574779 45.319061,12.994020 
	C36.936493,11.837871 33.183907,17.877752 29.476425,23.973907 
M34.872879,55.534500 
	C37.560776,52.874989 40.248672,50.215477 42.955910,47.536827 
	C42.162861,46.703972 41.418072,46.037209 40.818146,45.258804 
	C40.235821,44.503235 39.893333,43.557400 39.286869,42.826824 
	C37.108437,40.202614 33.686581,40.480770 33.337341,43.606892 
	C32.901756,47.505848 33.796818,51.553455 34.872879,55.534500 
M45.954914,33.004238 
	C44.192448,33.757961 42.429977,34.511684 39.787632,35.641689 
	C43.186451,38.326275 45.574757,40.212700 47.963062,42.099125 
	C47.582882,41.604424 47.202702,41.109722 46.822521,40.615021 
	C49.989502,38.425632 53.156487,36.236244 56.323467,34.046856 
	C56.103291,33.699181 55.883114,33.351501 55.662933,33.003826 
	C52.721798,33.003826 49.780659,33.003826 45.954914,33.004238 
z"/>
<path fill="#F49443" opacity="1.000000" stroke="none" 
	d="
M38.411102,81.104355 
	C33.517323,87.093369 29.330338,93.366486 22.013601,96.000130 
	C15.941508,98.185760 10.269170,95.835480 6.527312,90.022659 
	C3.993891,86.087097 4.559516,79.361389 8.110620,75.444138 
	C11.655502,71.533752 15.504545,67.899094 19.271687,64.091545 
	C21.960556,68.111687 21.604509,74.814690 18.781240,77.725052 
	C17.856535,78.678276 16.503092,79.453651 16.067387,80.587639 
	C15.406661,82.307289 15.376658,84.269272 15.078704,86.128304 
	C17.285297,86.016602 19.713041,86.448875 21.645622,85.663185 
	C24.407377,84.540382 27.068844,82.813225 29.274771,80.798492 
	C30.924555,79.291718 32.449097,77.046982 32.848614,74.910088 
	C33.479965,71.533180 33.119129,67.971222 33.199917,64.488083 
	C33.201733,64.409737 33.463276,64.337418 33.603668,64.262291 
	C39.742592,67.678276 41.630093,73.836731 38.411102,81.104355 
z"/>
<path fill="#F49442" opacity="1.000000" stroke="none" 
	d="
M92.817886,26.693066 
	C89.032310,30.484221 85.856926,34.508118 81.863892,37.404961 
	C76.834175,41.053871 70.725449,41.422535 63.830849,33.000885 
	C67.604202,33.000885 70.914993,33.518181 73.956070,32.834961 
	C76.330238,32.301579 78.762833,30.642546 80.455498,28.820457 
	C82.464958,26.657343 83.498817,23.617701 85.349533,21.268349 
	C86.959511,19.224585 88.638313,17.224316 86.343224,15.048646 
	C84.019814,12.846141 81.666451,13.819870 79.485260,15.984272 
	C74.967972,20.466770 70.196304,21.302860 64.679504,19.001181 
	C68.631485,14.751166 72.262032,9.970317 76.769882,6.253483 
	C81.004684,2.761788 90.251053,4.557051 93.668137,9.319371 
	C98.508102,16.064718 98.345047,20.318855 92.817886,26.693066 
z"/>
<path fill="#F49342" opacity="1.000000" stroke="none" 
	d="
M30.470085,76.980614 
	C28.564886,77.756363 26.600559,79.015221 25.468311,78.487785 
	C24.241383,77.916275 23.139341,75.693962 23.106321,74.167282 
	C22.897392,64.507874 23.047852,54.841343 22.970743,45.178036 
	C22.947720,42.292877 23.907614,39.694824 26.887688,40.263863 
	C28.512709,40.574162 30.761353,43.444801 30.812071,45.215630 
	C31.112181,55.693810 30.850290,66.188087 30.470085,76.980614 
z"/>
<path fill="#F49341" opacity="1.000000" stroke="none" 
	d="
M76.211189,29.888535 
	C65.671890,29.981298 55.553493,29.824594 45.446625,30.096478 
	C42.254330,30.182352 40.365486,28.679581 40.270733,26.209497 
	C40.161648,23.365713 42.110451,21.822054 45.504639,21.912527 
	C54.783115,22.159842 64.076744,21.855640 73.353584,22.132101 
	C75.073227,22.183348 77.362839,23.562412 78.215332,25.016819 
	C78.777039,25.975107 77.236023,28.165899 76.211189,29.888535 
z"/>
<path fill="#F49443" opacity="1.000000" stroke="none" 
	d="
M26.688549,30.238316 
	C28.378500,31.613472 29.781866,32.785259 32.036449,34.667797 
	C29.175842,36.107216 27.303680,37.129978 25.364998,38.005424 
	C22.615273,39.247108 20.777018,40.941956 20.958380,44.314674 
	C21.139784,47.688217 20.998203,51.079124 20.998203,54.963596 
	C10.752835,49.244511 11.976384,39.137653 23.292347,28.311209 
	C24.289865,28.864159 25.345913,29.449551 26.688549,30.238316 
z"/>
<path fill="#F49443" opacity="1.000000" stroke="none" 
	d="
M29.272202,23.673294 
	C33.183907,17.877752 36.936493,11.837871 45.319061,12.994020 
	C49.529816,13.574779 52.831593,15.431794 55.364319,19.741911 
	C50.587337,19.953651 45.784641,18.941612 42.382156,20.676188 
	C39.241001,22.277533 37.601673,26.824810 35.080990,30.385160 
	C33.054001,28.066420 31.265213,26.020163 29.272202,23.673294 
z"/>
<path fill="#F49443" opacity="1.000000" stroke="none" 
	d="
M34.495110,55.535690 
	C33.796818,51.553455 32.901756,47.505848 33.337341,43.606892 
	C33.686581,40.480770 37.108437,40.202614 39.286869,42.826824 
	C39.893333,43.557400 40.235821,44.503235 40.818146,45.258804 
	C41.418072,46.037209 42.162861,46.703972 42.955910,47.536827 
	C40.248672,50.215477 37.560776,52.874989 34.495110,55.535690 
z"/>
<path fill="#F49545" opacity="1.000000" stroke="none" 
	d="
M46.397217,33.004032 
	C49.780659,33.003826 52.721798,33.003826 55.662933,33.003826 
	C55.883114,33.351501 56.103291,33.699181 56.323467,34.046856 
	C53.156487,36.236244 49.989502,38.425632 46.822521,40.615021 
	C47.202702,41.109722 47.582882,41.604424 47.963062,42.099125 
	C45.574757,40.212700 43.186451,38.326275 39.787632,35.641689 
	C42.429977,34.511684 44.192448,33.757961 46.397217,33.004032 
z"/>
</svg>